<?xml version="1.0" encoding="utf-8"?>
<!-- Generator: Adobe Illustrator 21.0.2, SVG Export Plug-In . SVG Version: 6.00 Build 0)  -->
<svg version="1.1" xmlns="http://www.w3.org/2000/svg" xmlns:xlink="http://www.w3.org/1999/xlink" x="0px" y="0px"
	 viewBox="0 0 612 214" style="enable-background:new 0 0 612 214;" xml:space="preserve">
<style type="text/css">
	.st0{display:none;}
	.st1{display:inline;}
	.st2{fill:#FFFFFF;}
	.st3{fill:none;}
	.st4{stroke:#000000;stroke-width:0.612;}
	.st5{fill:#D5AB81;}
	.st6{fill:#F2E4D5;}
	.st7{fill:#ED1C24;}
	.st8{fill:none;stroke:#000000;stroke-width:6.1189;}
	.st9{fill:#FFCB05;}
	.st10{fill:#FFCB05;stroke:#000000;stroke-width:0.612;}
	.st11{fill:#FFFFFF;stroke:#000000;stroke-width:1.76;}
	.st12{fill:#FFFFFF;stroke:#000000;stroke-width:1.7703;}
	.st13{fill:#FFFFFF;stroke:#000000;stroke-width:1.7972;}
</style>
<g id="Layer_1" class="st0">
	<g class="st1">
		<g>
			<g>
				<path class="st2" d="M305.4,198.9c-48,0-87.1-39.1-87.1-87.1c0-48,39.1-87.1,87.1-87.1c48,0,87.1,39.1,87.1,87.1
					C392.5,159.8,353.4,198.9,305.4,198.9L305.4,198.9z"/>
			</g>
			<g>
				<path class="st2" d="M68,211.7c-0.9,0-1.7-0.7-1.8-1.7l-0.8-11.9L54.2,198l-4.8,12.6c-0.3,0.7-0.9,1.2-1.7,1.2H35.2
					c-0.6,0-1.2-0.3-1.5-0.8c-0.3-0.5-0.4-1.2-0.1-1.7l22.9-51c0.3-0.6,0.9-1.1,1.6-1.1l17.2,0c0.9,0,1.7,0.7,1.8,1.6l5.5,51.1
					c0.1,0.5-0.1,1-0.5,1.4c-0.3,0.4-0.8,0.6-1.3,0.6H68z M64.5,187.2l-0.5-14l-5.4,13.9L64.5,187.2z"/>
			</g>
			<g>
				<path class="st2" d="M556.2,128"/>
			</g>
			<g>
				<path class="st2" d="M294.1,196.8c-0.1,0-0.1,0-0.1,0c-0.8-0.1-18.9-2.3-32.5-11l-2.1,0.5c-0.4,0.1-11.7,3.6-18.8,4
					c-1.5,0.1-2.7,0.2-3.8,0.4c-1.6,0.2-2.9,0.3-4.4,0.3c-3.1,0-6.3-0.6-11.2-2.2c-9.2-3-11.3-3.1-11.4-3.1c0,0,0,0-0.1,0
					c-0.1,0-0.1,0-0.2,0c-0.5-0.1-12.4-2-15.6-3c-0.3-0.1-0.6-0.2-0.9-0.3c-3.6-1-6.8-2.7-5.5-10.8c1.2-8.1,9.7-27.5,12.3-31
					c0.3-0.4,0.6-0.8,0.9-1.3c2.5-3.4,6.7-9.2,14.2-15.7c0,0,4.1-3.8,7.2-11.4c2.8-6.9,5.5-10.5,7.2-12.6c0.3-0.4,0.5-0.7,0.7-1
					c0.7-1,1.1-1.8,1.5-2.6c0.3-0.7,0.7-1.4,1.2-2c0.7-0.8,4.7-5.1,13.5-5.2c0.3,0,0.7,0,1,0c2.1,0,3.6,0.1,5,0.3
					c1,0.1,1.8,0.2,2.7,0.2c1.2,0,2.8-0.1,5.7-1c-0.9-0.6-2.8-2-4.2-4c-0.1,0.1-0.1,0.2-0.2,0.3c0,0.6-0.4,1.2-0.9,1.5
					c-0.3,0.1-0.6,0.2-0.9,0.2c-0.5,0-0.9-0.2-1.3-0.5c-0.2-0.2-3.8-4-3.7-11.2c-0.2-0.1-0.5-0.2-0.7-0.3c-0.9-0.7-3-3.3,0.7-11.4
					c-0.3-0.1-0.6-0.3-0.8-0.5c-0.5-0.5-0.6-1.2-0.4-1.8c0.1-0.4,3.5-10,12.6-10c0.5,0,1.1,0,1.6,0.1l0-0.2c0-0.5,0.3-1,0.7-1.3
					c0.3-0.3,0.7-0.4,1.1-0.4c0.1,0,0.2,0,0.2,0c0.2,0,1,0.1,1.9,0.5c0.1-1.6,0.3-3.4,1.1-4.7c-1.1-1.1-2.3-2.7-2-4.7
					c0.5-2.9,4-5,10.9-6.4c1.9-4.7,11-24.2,28.6-24.9c1.3-1,5-3.6,8.9-3.6c2.3,0,5.4,0.9,7.8,4.9c3.1,0.6,11.2,3.9,19.3,21.4
					c0.2,0.4,4.6,10.1,5.5,21c1-0.2,2.2-0.3,3.6-0.3c3.6,0,6.8,1.2,9.1,3.4c0.5,0.4,0.7,1.1,0.5,1.7c-0.2,0.6-0.6,1.1-1.2,1.3
					c-1,0.3-2.1,0.7-3.2,1c2.4,1.5,5.1,4.1,6.1,8.1c0.2,0.7-0.1,1.4-0.6,1.8c-0.3,0.3-0.7,0.4-1.2,0.4c-0.2,0-0.5,0-0.7-0.1
					c-0.3-0.1-0.5-0.2-0.8-0.3c0.4,1.5,0.8,3.4,0.7,5.4c0.1,0,0.2,0,0.3,0c0.1,0,0.2,0,0.2,0c0.6,0.1,1.2,0.5,1.4,1.1l1.6,3.8
					c0.1,0.3,0.2,0.6,0.1,0.8l-1,13.6c0.9,0.5,1.8,1.3,2.1,2.5c0.7,1.1,2.5,4.1,2.6,6.3c0,1.4,0.1,3.9,0.1,5.3
					c1.8,1.1,5.7,3.4,6.9,4.2c0.1,0,7,4.6,8.1,6.5c0.1,0.1,0.2,0.3,0.2,0.5c0,0.1,0.9,3.4,1.7,9.1c0.7,4.7,1.3,6.6,1.4,6.9l0.7,1.4
					c0.2,0.4,0.3,0.9,0.2,1.3c-0.2,0.6-4.2,15-13.9,26.5c-9.6,11.4-13.3,14-13.4,14.1l-13.7,9.8c-0.1,0.1-0.3,0.2-0.4,0.2l-19,6.9
					c-0.1,0-0.3,0.1-0.4,0.1l-15.1,1.8c-0.1,0-0.1,0-0.2,0L294.1,196.8z M342.3,98.2c2,1.5,4.1,3.1,5.6,4.1c0.3-1.5,1-2.6,1.5-3.2
					c0.8-1,1.5-1.7,2-2.2c0.2-1.1,0.8-2.4,2.4-3.5l0.6-11c-0.8,2-2.2,4.6-4.7,7.5c-0.3,0.4-0.9,0.6-1.4,0.6c-0.2,0-0.4,0-0.6-0.1
					c-0.6-0.2-1.1-0.7-1.2-1.4c-1.5,1.7-3.5,3.6-6.2,5.1C341.1,95.3,341.9,96.8,342.3,98.2L342.3,98.2z"/>
			</g>
			<g>
				<path class="st2" d="M332.5,55.6"/>
			</g>
			<g>
				<path class="st2" d="M270.3,43c-0.9,0-1.7-0.5-2.1-1.2c-0.2-0.4-0.5-1.3,0.3-2.4c0.2-0.2,0.4-0.4,0.6-0.5c0.2-0.1,4.8-2.6,8.3-3
					c0.1,0,0.1,0,0.2,0c0,0,0.2,0,0.5,0c0.9,0,2.4,0,2.8,1.5c0.2,0.8-0.2,1.7-1,2.1c-0.3,0.1-0.6,0.2-1.9,0.6
					c-1.4,0.4-3.8,1.1-4.7,1.5c-0.8,0.4-0.9,0.5-1,0.6c-0.2,0.2-0.5,0.5-1,0.7C270.9,43,270.6,43,270.3,43L270.3,43z"/>
			</g>
			<g>
				<path class="st2" d="M31.5,233.7c-1,0-1.8-0.8-1.8-1.8V218c0-1,0.8-1.8,1.8-1.8h4c1,0,2.9,0,4.2,1.8c0.9,1.2,1,2.4,1,3.6
					c0,1.1-0.2,2-0.6,2.7c0.5,0.8,0.9,1.9,0.9,3.5c0,0.6,0,1.3-0.2,2.2c-0.8,2.6-2.4,3.9-5,3.9H31.5z"/>
			</g>
			<g>
				<path class="st2" d="M47.8,234.1c-6,0-6-4.8-6-6.4V218c0-1,0.8-1.8,1.8-1.8H46c0.8,0,1.5,0.5,1.7,1.3c0.2-0.7,0.9-1.3,1.7-1.3
					h2.4c1,0,1.8,0.8,1.8,1.8v9.7C53.7,229.3,53.7,234.1,47.8,234.1L47.8,234.1z"/>
			</g>
			<g>
				<path class="st2" d="M56.6,233.7c-1,0-1.8-0.8-1.8-1.8V218c0-1,0.8-1.8,1.8-1.8H59c1,0,1.8,0.8,1.8,1.8v13.9
					c0,1-0.8,1.8-1.8,1.8H56.6z"/>
			</g>
			<g>
				<path class="st2" d="M63.7,233.7c-1,0-1.8-0.8-1.8-1.8V218c0-1,0.8-1.8,1.8-1.8h2.5c1,0,1.8,0.8,1.8,1.8v10.1h2.8
					c1,0,1.8,0.8,1.8,1.8v2c0,1-0.8,1.8-1.8,1.8H63.7z"/>
			</g>
			<g>
				<path class="st2" d="M74.8,233.7c-1,0-1.8-0.8-1.8-1.8V218c0-1,0.8-1.8,1.8-1.8h5.1c1.3,0,3,0.7,4.1,2.5c0.8,1.4,1,3.3,1,5.7
					c0,3.1,0,6.9-2.9,8.7c-0.9,0.6-1.9,0.6-2.8,0.6H74.8z"/>
			</g>
			<g>
				<path class="st2" d="M87.7,233.7c-1,0-1.8-0.8-1.8-1.8V218c0-1,0.8-1.8,1.8-1.8h2.5c1,0,1.8,0.8,1.8,1.8v13.9
					c0,1-0.8,1.8-1.8,1.8H87.7z"/>
			</g>
			<g>
				<path class="st2" d="M100.6,233.7c-0.7,0-1.4-0.4-1.7-1.1c-0.3,0.6-0.9,1.1-1.7,1.1h-2.5c-1,0-1.8-0.8-1.8-1.8V218
					c0-1,0.8-1.8,1.8-1.8h2.5c0.7,0,1.4,0.4,1.7,1.1c0.3-0.7,0.9-1.1,1.7-1.1h2.5c1,0,1.8,0.8,1.8,1.8v13.9c0,1-0.8,1.8-1.8,1.8
					H100.6z"/>
			</g>
			<g>
				<path class="st2" d="M111.9,234.1c-6.1,0-6.1-5.2-6.1-8.2v-2c0.1-3,0.2-8,6.1-8c1.2,0,4.9,0,5.9,4.4c0.1,0.6,0.2,1.2,0.2,1.7
					l0,0.3c0,0.4-0.1,0.8-0.4,1.1c0.2,0.3,0.3,0.6,0.3,1v7.5c0,1-0.8,1.8-1.8,1.8h-1.8c-0.2,0-0.4,0-0.6-0.1c-0.5,0.2-1,0.4-1.6,0.4
					C112,234.1,111.9,234.1,111.9,234.1L111.9,234.1z"/>
			</g>
			<g>
				<path class="st2" d="M149.7,233.7c-0.8,0-1.5-0.5-1.7-1.2c0-0.1-0.1-0.3-0.1-0.4c-0.1,0.9-0.8,1.7-1.8,1.7h-2.4
					c-1,0-1.8-0.8-1.8-1.8V218c0-1,0.8-1.8,1.8-1.8h4.6c3.5,0,5.5,1.9,5.5,5.1c0,1.5-0.3,2.6-0.8,3.3c0.4,0.6,0.7,1.5,0.7,2.6l0,0.2
					c0,2.1,0.1,2.9,0.2,3.2c0.2,0.3,0.4,0.7,0.4,1.1v0.3c0,1-0.8,1.8-1.8,1.8H149.7z"/>
			</g>
			<g>
				<path class="st2" d="M156.6,233.7c-1,0-1.8-0.8-1.8-1.8V218c0-1,0.8-1.8,1.8-1.8h6.9c1,0,1.8,0.8,1.8,1.8v2
					c0,0.9-0.7,1.7-1.6,1.8c0.7,0.2,1.3,0.9,1.3,1.7v2c0,1-0.8,1.8-1.8,1.8h-2.3v0.7h2.6c1,0,1.8,0.8,1.8,1.8v2c0,1-0.8,1.8-1.8,1.8
					H156.6z"/>
			</g>
			<g>
				<path class="st2" d="M176.5,233.7c-0.5,0-0.9-0.2-1.2-0.5c-0.3,0.3-0.8,0.5-1.2,0.5h-1.5c-0.5,0-0.9-0.2-1.2-0.5
					c-0.3,0.3-0.8,0.5-1.2,0.5h-2.4c-1,0-1.8-0.8-1.8-1.8V218c0-1,0.8-1.8,1.8-1.8h3.9c0.8,0,1.6,0.6,1.7,1.4
					c0.2-0.8,0.9-1.4,1.8-1.4h3.9c1,0,1.8,0.8,1.8,1.8v13.9c0,1-0.8,1.8-1.8,1.8H176.5z"/>
			</g>
			<g>
				<path class="st2" d="M187.7,234.1c-6.1,0-6.1-5.2-6.1-8.2v-2c0.1-3,0.2-8,6.1-8c5.9,0,6,5,6.1,7.9l0,2
					C193.8,228.9,193.8,234.1,187.7,234.1L187.7,234.1z"/>
			</g>
			<g>
				<path class="st2" d="M196.6,233.7c-1,0-1.8-0.8-1.8-1.8V218c0-1,0.8-1.8,1.8-1.8h5.1c1.3,0,3,0.7,4.1,2.5c0.8,1.4,1,3.3,1,5.7
					c0,3.1,0,6.9-2.9,8.7c-0.9,0.6-1.9,0.6-2.8,0.6H196.6z"/>
			</g>
			<g>
				<path class="st2" d="M209.4,233.7c-1,0-1.8-0.8-1.8-1.8V218c0-1,0.8-1.8,1.8-1.8h6.9c1,0,1.8,0.8,1.8,1.8v2
					c0,0.9-0.7,1.7-1.6,1.8c0.7,0.2,1.3,0.9,1.3,1.7v2c0,1-0.8,1.8-1.8,1.8h-2.3v0.7h2.6c1,0,1.8,0.8,1.8,1.8v2c0,1-0.8,1.8-1.8,1.8
					H209.4z"/>
			</g>
			<g>
				<path class="st2" d="M220.5,233.7c-1,0-1.8-0.8-1.8-1.8V218c0-1,0.8-1.8,1.8-1.8h2.4c1,0,1.8,0.8,1.8,1.8v10.1h2.8
					c1,0,1.8,0.8,1.8,1.8v2c0,1-0.8,1.8-1.8,1.8H220.5z"/>
			</g>
			<g>
				<path class="st2" d="M231.6,233.7c-1,0-1.8-0.8-1.8-1.8V218c0-1,0.8-1.8,1.8-1.8h2.4c1,0,1.8,0.8,1.8,1.8v13.9
					c0,1-0.8,1.8-1.8,1.8H231.6z"/>
			</g>
			<g>
				<path class="st2" d="M244.5,233.7c-0.7,0-1.4-0.4-1.7-1.1c-0.3,0.6-0.9,1.1-1.7,1.1h-2.5c-1,0-1.8-0.8-1.8-1.8V218
					c0-1,0.8-1.8,1.8-1.8h2.5c0.7,0,1.4,0.4,1.7,1.1c0.3-0.7,0.9-1.1,1.7-1.1h2.4c1,0,1.8,0.8,1.8,1.8v13.9c0,1-0.8,1.8-1.8,1.8
					H244.5z"/>
			</g>
			<g>
				<path class="st2" d="M255.7,234.1c-6.1,0-6.1-5.2-6.1-8.2v-2c0.1-3,0.2-8,6.1-8c1.2,0,4.9,0,5.9,4.4c0.1,0.6,0.2,1.2,0.2,1.7
					l0,0.3c0,0.4-0.1,0.8-0.4,1.1c0.2,0.3,0.3,0.6,0.3,1v7.5c0,1-0.8,1.8-1.8,1.8h-1.8c-0.2,0-0.4,0-0.6-0.1c-0.5,0.2-1,0.4-1.6,0.4
					C255.8,234.1,255.8,234.1,255.7,234.1L255.7,234.1z"/>
			</g>
			<g>
				<path class="st2" d="M295.2,233.7c-0.6,0-1.1-0.3-1.5-0.8c-0.3,0.5-0.9,0.8-1.5,0.8h-2.9c-0.9,0-1.6-0.6-1.8-1.5l-2.5-13.9
					c-0.1-0.5,0-1.1,0.4-1.5c0.3-0.4,0.8-0.6,1.4-0.6h2.5c0.7,0,1.4,0.5,1.7,1.1c0.3-0.7,0.9-1.1,1.7-1.1h2c0.7,0,1.4,0.5,1.7,1.1
					c0.3-0.7,0.9-1.1,1.7-1.1h2.5c0.5,0,1,0.2,1.4,0.6c0.3,0.4,0.5,0.9,0.4,1.5l-2.4,13.9c-0.2,0.9-0.9,1.5-1.8,1.5H295.2z"/>
			</g>
			<g>
				<path class="st2" d="M308.7,234.1c-6.1,0-6.1-5.2-6.1-8.2v-2c0.1-3,0.2-8,6.1-8c5.9,0,6,5,6.1,7.9l0,2
					C314.8,228.9,314.8,234.1,308.7,234.1L308.7,234.1z"/>
			</g>
			<g>
				<path class="st2" d="M321.7,234.1c-6.1,0-6.1-5.2-6.1-8.2v-2c0.1-3,0.2-8,6.1-8c5.8,0,6,4.8,6.1,7.9l0,2
					C327.8,228.9,327.8,234.1,321.7,234.1L321.7,234.1z"/>
			</g>
			<g>
				<path class="st2" d="M330.6,233.7c-1,0-1.8-0.8-1.8-1.8V218c0-1,0.8-1.8,1.8-1.8h5.1c1.3,0,3,0.7,4.1,2.5c0.8,1.4,1,3.3,1,5.7
					c0,3.1,0,6.9-2.9,8.7c-0.9,0.6-1.9,0.6-2.8,0.6H330.6z"/>
			</g>
			<g>
				<path class="st2" d="M351.1,233.7c-0.6,0-1.1-0.3-1.5-0.8c-0.3,0.5-0.9,0.8-1.5,0.8h-2.9c-0.9,0-1.6-0.6-1.8-1.5l-2.5-13.9
					c-0.1-0.5,0-1.1,0.4-1.5c0.3-0.4,0.8-0.6,1.4-0.6h2.5c0.7,0,1.4,0.5,1.7,1.1c0.3-0.7,0.9-1.1,1.7-1.1h2c0.7,0,1.4,0.4,1.7,1.1
					c0.3-0.7,0.9-1.1,1.7-1.1h2.5c0.5,0,1,0.2,1.4,0.6c0.3,0.4,0.5,0.9,0.4,1.5l-2.4,13.9c-0.2,0.9-0.9,1.5-1.8,1.5H351.1z"/>
			</g>
			<g>
				<path class="st2" d="M364.5,234.1c-6.1,0-6.1-5.2-6.1-8.2v-2c0.1-3,0.2-8,6.1-8c5.9,0,6,5,6.1,7.9l0,2
					C370.6,228.9,370.6,234.1,364.5,234.1L364.5,234.1z"/>
			</g>
			<g>
				<path class="st2" d="M379.3,233.7c-0.8,0-1.5-0.5-1.7-1.2c0-0.1-0.1-0.3-0.1-0.4c-0.1,0.9-0.8,1.7-1.8,1.7h-2.4
					c-1,0-1.8-0.8-1.8-1.8V218c0-1,0.8-1.8,1.8-1.8h4.6c3.5,0,5.5,1.9,5.5,5.1c0,1.5-0.3,2.6-0.8,3.3c0.4,0.6,0.7,1.5,0.7,2.6l0,0.2
					c0,2.1,0.1,2.9,0.2,3.1c0.2,0.3,0.4,0.7,0.4,1.1v0.3c0,1-0.8,1.8-1.8,1.8H379.3z"/>
			</g>
			<g>
				<path class="st2" d="M391.9,233.7c-0.7,0-1.3-0.4-1.6-0.9c-0.3,0.6-0.9,0.9-1.6,0.9h-2.5c-1,0-1.8-0.8-1.8-1.8V218
					c0-1,0.8-1.8,1.8-1.8h2.5c0.6,0,1.2,0.3,1.5,0.8c0.3-0.5,0.9-0.8,1.5-0.8h2.8c0.6,0,1.2,0.3,1.5,0.9c0.3,0.5,0.3,1.2,0,1.8
					l-2.8,5.2l3.1,7.2c0.2,0.6,0.2,1.2-0.2,1.7c-0.3,0.5-0.9,0.8-1.5,0.8H391.9z"/>
			</g>
			<g>
				<path class="st2" d="M398.3,233.7c-1,0-1.8-0.8-1.8-1.8V218c0-1,0.8-1.8,1.8-1.8h2.4c1,0,1.8,0.8,1.8,1.8v13.9
					c0,1-0.8,1.8-1.8,1.8H398.3z"/>
			</g>
			<g>
				<path class="st2" d="M411.1,233.7c-0.7,0-1.4-0.4-1.7-1.1c-0.3,0.6-0.9,1.1-1.7,1.1h-2.5c-1,0-1.8-0.8-1.8-1.8V218
					c0-1,0.8-1.8,1.8-1.8h2.5c0.7,0,1.4,0.4,1.7,1.1c0.3-0.7,0.9-1.1,1.7-1.1h2.4c1,0,1.8,0.8,1.8,1.8v13.9c0,1-0.8,1.8-1.8,1.8
					H411.1z"/>
			</g>
			<g>
				<path class="st2" d="M422.4,234.1c-6.1,0-6.1-5.2-6.1-8.2v-2c0.1-3.2,0.2-8,6.1-8c1.2,0,4.9,0,5.9,4.4c0.1,0.6,0.2,1.2,0.2,1.7
					l0,0.3c0,0.4-0.1,0.8-0.4,1.1c0.2,0.3,0.3,0.6,0.3,1v7.5c0,1-0.8,1.8-1.8,1.8h-1.8c-0.2,0-0.4,0-0.6-0.1c-0.5,0.2-1,0.4-1.6,0.4
					C422.5,234.1,422.5,234.1,422.4,234.1L422.4,234.1z"/>
			</g>
			<g>
				<path class="st2" d="M454.2,233.7c-1,0-1.8-0.8-1.8-1.8V218c0-1,0.8-1.8,1.8-1.8h2.5c1,0,1.8,0.8,1.8,1.8v10.1h2.7
					c1,0,1.8,0.8,1.8,1.8v2c0,1-0.8,1.8-1.8,1.8H454.2z"/>
			</g>
			<g>
				<path class="st2" d="M471,233.7c-0.9,0-1.6-0.6-1.8-1.5l-0.3-1.7l-0.3,1.7c-0.2,0.9-0.9,1.5-1.8,1.5h-2.6
					c-0.5,0-1.1-0.2-1.4-0.7c-0.3-0.4-0.5-1-0.4-1.5l3.1-13.9c0.2-0.8,0.9-1.4,1.8-1.4h3.3c0.8,0,1.6,0.6,1.8,1.4l3,13.9
					c0.1,0.5,0,1.1-0.4,1.5c-0.3,0.4-0.9,0.7-1.4,0.7H471z"/>
			</g>
			<g>
				<path class="st2" d="M483,233.7c-0.7,0-1.4-0.4-1.7-1.1c-0.3,0.6-0.9,1.1-1.7,1.1h-2.5c-1,0-1.8-0.8-1.8-1.8V218
					c0-1,0.8-1.8,1.8-1.8h2.5c0.7,0,1.4,0.4,1.7,1.1c0.3-0.7,0.9-1.1,1.7-1.1h2.4c1,0,1.8,0.8,1.8,1.8v13.9c0,1-0.8,1.8-1.8,1.8H483
					z"/>
			</g>
			<g>
				<path class="st2" d="M490.3,233.7c-1,0-1.8-0.8-1.8-1.8V218c0-1,0.8-1.8,1.8-1.8h5.1c1.3,0,3,0.7,4.1,2.5c0.8,1.4,1,3.3,1,5.7
					c0,3.1,0,6.9-2.9,8.7c-0.9,0.6-1.9,0.6-2.8,0.6H490.3z"/>
			</g>
			<g>
				<path class="st2" d="M506.9,234.1c-3.6,0-5.8-2.3-5.8-6v-1c0-0.9,0.7-1.7,1.6-1.8c-0.2-0.2-0.4-0.4-0.6-0.7c-0.6-1-1-2.1-1-3.2
					c0-3.4,2.1-5.5,5.6-5.5c2.5,0,5.6,1.1,5.6,6.2l0,0.1c0,0.5-0.2,0.9-0.5,1.3c-0.2,0.2-0.5,0.4-0.9,0.5c0,0,0.1,0.1,0.1,0.1
					c1.1,1.2,1.6,2.4,1.6,4.2C512.7,231.8,510.4,234.1,506.9,234.1L506.9,234.1z"/>
			</g>
			<g>
				<path class="st2" d="M519.3,234.1c-6.1,0-6.1-5.2-6.1-8.2v-2c0.1-3.2,0.2-8,6.1-8c3.2,0.1,5.1,2,5.4,5.3c0,0.4,0.1,0.8,0.1,1.3
					c-0.1,1-0.8,1.7-1.8,1.7h-2.4c-0.5,0-0.9-0.2-1.2-0.5v2c0.3-0.3,0.7-0.5,1.2-0.5h2.5c0.5,0,1,0.2,1.3,0.6
					c0.3,0.4,0.5,0.9,0.5,1.3l0,0.8C524.5,233,521.6,234.1,519.3,234.1L519.3,234.1z"/>
			</g>
			<g>
				<path class="st2" d="M533,233.7c-0.9,0-1.6-0.6-1.8-1.5l-0.3-1.7l-0.3,1.7c-0.2,0.9-0.9,1.5-1.8,1.5h-2.6
					c-0.5,0-1.1-0.2-1.4-0.7c-0.3-0.4-0.5-1-0.4-1.5l3.1-13.9c0.2-0.8,0.9-1.4,1.8-1.4h3.3c0.8,0,1.6,0.6,1.8,1.4l3,13.9
					c0.1,0.5,0,1.1-0.4,1.5c-0.3,0.4-0.9,0.7-1.4,0.7H533z"/>
			</g>
			<g>
				<path class="st2" d="M539.2,233.7c-1,0-1.8-0.8-1.8-1.8V218c0-1,0.8-1.8,1.8-1.8h5c3,0,4.9,2.3,4.9,5.8c0,2-0.7,3.7-1.9,4.7
					c-1,0.8-2.3,1.3-3.8,1.3v4c0,1-0.8,1.8-1.8,1.8H539.2z"/>
			</g>
			<g>
				<path class="st2" d="M551.3,233.7c-1,0-1.8-0.8-1.8-1.8V218c0-1,0.8-1.8,1.8-1.8h2.5c1,0,1.8,0.8,1.8,1.8v13.9
					c0,1-0.8,1.8-1.8,1.8H551.3z"/>
			</g>
			<g>
				<path class="st2" d="M564.1,233.7c-0.7,0-1.4-0.4-1.7-1.1c-0.3,0.6-0.9,1.1-1.7,1.1h-2.5c-1,0-1.8-0.8-1.8-1.8V218
					c0-1,0.8-1.8,1.8-1.8h2.5c0.7,0,1.4,0.4,1.7,1.1c0.3-0.7,0.9-1.1,1.7-1.1h2.5c1,0,1.8,0.8,1.8,1.8v13.9c0,1-0.8,1.8-1.8,1.8
					H564.1z"/>
			</g>
			<g>
				<path class="st2" d="M575.4,234.1c-6.1,0-6.1-5.2-6.1-8.2v-2c0.1-3,0.2-8,6.1-8c1.2,0,4.9,0,5.9,4.4c0.1,0.6,0.2,1.2,0.2,1.7
					l0,0.3c0,0.4-0.1,0.8-0.4,1.1c0.2,0.3,0.3,0.6,0.3,1v7.5c0,1-0.8,1.8-1.8,1.8h-1.8c-0.2,0-0.4,0-0.6-0.1c-0.5,0.2-1,0.4-1.6,0.4
					C575.5,234.1,575.5,234.1,575.4,234.1L575.4,234.1z"/>
			</g>
			<g>
				<path class="st2" d="M64,207.2c-0.9,0-1.7-0.7-1.8-1.7l-0.8-11.9l-11.1-0.2L45.4,206c-0.3,0.7-0.9,1.2-1.7,1.2H31.2
					c-0.6,0-1.2-0.3-1.5-0.8c-0.3-0.5-0.4-1.2-0.1-1.7l22.9-51.1c0.3-0.6,0.9-1.1,1.6-1.1h17.2c0.9,0,1.7,0.7,1.8,1.6l5.5,51.1
					c0.1,0.5-0.1,1-0.5,1.4c-0.3,0.4-0.8,0.6-1.3,0.6H64z M60.5,182.6l-0.5-14l-5.4,13.9L60.5,182.6z"/>
			</g>
			<g>
				<path class="st2" d="M112.3,213.7c-6.9,0-11.6-1.6-14.2-5c-2.5-3.2-3-7.7-1.5-13.8l5.2-21.3c3-12,11-17.9,24.7-17.9
					c7.7,0,12.9,1.7,15.7,5.3c2.3,2.9,2.8,6.9,1.6,11.9l-1.1,4.3c-0.2,0.8-0.9,1.4-1.7,1.4h-14.1c-0.6,0-1.1-0.3-1.4-0.7
					c-0.3-0.4-0.5-1-0.3-1.5l0.8-3.3c0.7-2.8,0.1-3.8-0.1-4.1c-0.1-0.1-0.3-0.4-1-0.4l-0.2,0c-2.9,0-4.1,1-4.8,4l-6.4,25.6
					c-0.2,0.9-0.2,1.6,0,1.9c0.1,0.1,0.5,0.5,2.2,0.5c2.7,0,4.2-1.7,5.3-6.1l1.2-4.7c0.2-0.8,0.9-1.4,1.7-1.4h14.1
					c0.6,0,1.1,0.3,1.4,0.7c0.3,0.4,0.5,1,0.3,1.5l-1.6,6.4C135.4,207.9,126.3,213.7,112.3,213.7L112.3,213.7z"/>
			</g>
			<g>
				<path class="st2" d="M108.5,209.1c-6.9,0-11.6-1.6-14.2-5c-2.5-3.2-3-7.7-1.5-13.8l5.2-21.3c3-12,11-17.9,24.7-17.9
					c7.7,0,12.9,1.7,15.7,5.3c2.3,2.9,2.8,6.9,1.6,11.9l-1.1,4.4c-0.2,0.8-0.9,1.4-1.7,1.4h-14.1c-0.6,0-1.1-0.3-1.4-0.7
					c-0.3-0.4-0.5-1-0.3-1.5l0.8-3.3c0.7-2.8,0.1-3.9-0.1-4.1c-0.1-0.1-0.3-0.4-1-0.4l-0.2,0c-2.9,0-4.1,1-4.8,4l-6.4,25.6
					c-0.2,0.9-0.2,1.6,0,1.9c0.1,0.1,0.5,0.5,2.2,0.5c2.7,0,4.2-1.7,5.3-6.1l1.2-4.7c0.2-0.8,0.9-1.4,1.7-1.4h14.1
					c0.6,0,1.1,0.3,1.4,0.7c0.3,0.4,0.5,1,0.3,1.5l-1.6,6.4C131.7,203.2,122.5,209.1,108.5,209.1L108.5,209.1z"/>
			</g>
			<g>
				<path class="st2" d="M232.5,212.1c-0.6,0-1.1-0.3-1.4-0.7c-0.3-0.4-0.5-1-0.3-1.6l13.8-51.4c0.2-0.8,0.9-1.3,1.7-1.3h34.9
					c0.6,0,1.1,0.3,1.4,0.7c0.3,0.4,0.5,1,0.3,1.6l-2.9,11c-0.2,0.8-0.9,1.3-1.7,1.3h-20.5l-1.2,4.5h18c0.6,0,1.1,0.3,1.4,0.7
					c0.3,0.4,0.5,1,0.3,1.6l-2.8,10.5c-0.2,0.8-0.9,1.3-1.7,1.3h-19l-1.8,6.6h20.1c0.6,0,1.1,0.3,1.4,0.7c0.3,0.4,0.5,1,0.3,1.6
					l-3.1,11.7c-0.2,0.8-0.9,1.3-1.7,1.3H232.5z"/>
			</g>
			<g>
				<path class="st2" d="M229.1,207.3c-0.6,0-1.1-0.3-1.4-0.7c-0.3-0.4-0.5-1-0.3-1.6l13.8-51.5c0.2-0.8,0.9-1.3,1.7-1.3H278
					c0.6,0,1.1,0.3,1.4,0.7c0.3,0.4,0.5,1,0.3,1.6l-2.9,11c-0.2,0.8-0.9,1.3-1.7,1.3h-20.6l-1.2,4.6h18c0.6,0,1.1,0.3,1.4,0.7
					c0.3,0.4,0.5,1,0.3,1.6l-2.8,10.5c-0.2,0.8-0.9,1.3-1.7,1.3h-19l-1.8,6.6h20.3c0.6,0,1.1,0.3,1.4,0.7c0.3,0.4,0.5,1,0.3,1.6
					l-3.1,11.7c-0.2,0.8-0.9,1.3-1.7,1.3H229.1z"/>
			</g>
			<g>
				<path class="st2" d="M198.1,212.5c-0.5,0-1.1-0.3-1.4-0.7c-0.3-0.4-0.5-1-0.3-1.5l5.9-24.9L190,211.4c-0.3,0.6-0.9,1-1.6,1
					c0,0-11.4-0.1-11.4-0.1c-1,0-1.8-0.8-1.8-1.8l0.1-26.1l-6.2,26.4c-0.2,0.8-0.9,1.4-1.8,1.4c0,0-14.5-0.1-14.5-0.1
					c-0.5,0-1.1-0.3-1.4-0.7c-0.3-0.4-0.5-1-0.3-1.5l12.9-54.6c0.2-0.8,0.9-1.4,1.8-1.4c0,0,22.2,0.2,22.2,0.2c1,0,1.8,0.8,1.8,1.8
					l0.6,22.1l11.5-22.7c0.3-0.6,0.9-1,1.6-1c0,0,22.1,0.2,22.1,0.2c0.5,0,1.1,0.3,1.4,0.7c0.3,0.4,0.5,1,0.3,1.5l-12.9,54.6
					c-0.2,0.8-0.9,1.4-1.8,1.4L198.1,212.5z"/>
			</g>
			<g>
				<path class="st2" d="M194.2,208.6c-0.5,0-1.1-0.3-1.4-0.7c-0.3-0.4-0.5-1-0.3-1.5l5.9-24.4l-12.2,25.5c-0.3,0.6-0.9,1-1.6,1
					c0,0-11.4-0.1-11.4-0.1c-1,0-1.8-0.8-1.8-1.8l0.1-25.6l-6.2,25.9c-0.2,0.8-0.9,1.4-1.8,1.4c0,0-14.5-0.1-14.5-0.1
					c-0.6,0-1.1-0.3-1.4-0.7c-0.3-0.4-0.5-1-0.3-1.5l12.9-52c0.2-0.8,0.9-1.4,1.7-1.4c0,0,22.2-0.1,22.2-0.1c1,0,1.8,0.8,1.8,1.8
					l0.5,20.7l11.5-21.4c0.3-0.6,0.9-0.9,1.6-0.9c0,0,22.2-0.1,22.2-0.1c0.6,0,1.1,0.3,1.4,0.7c0.3,0.4,0.5,1,0.3,1.5l-13.1,52.7
					c-0.2,0.8-0.9,1.4-1.7,1.4L194.2,208.6z"/>
			</g>
			<g>
				<path class="st2" d="M556.4,212.9c-8-0.1-13.3-2.1-15.9-6.1c-3-4.5-3.1-10.7-2.7-15.1c0.1-0.9,0.9-1.6,1.8-1.6
					c0,0,12.6,0.3,12.6,0.3c0.5,0,0.9,0.2,1.3,0.6c0.3,0.4,0.5,0.8,0.5,1.3c-0.1,2.5,0.2,3.7,0.6,4.5c0.7,1.5,1.9,2.2,3.8,2.2h0
					c1.5,0,2.6-0.4,3.5-1.1c0.9-0.8,1.4-1.7,1.6-2.7c0.1-0.9,0-1.6-0.6-2.3c-0.2-0.3-1.2-1.2-5.4-2.4c-6-1.8-10.1-4.1-12.4-7.1
					c-2.4-3.1-3.2-7-2.5-11.6c0.5-3,1.6-5.8,3.5-8.4c1.8-2.6,4.3-4.7,7.4-6.2c3-1.4,6.8-2.2,11.4-2.2l0.3,0c6,0,10.4,1.5,13.3,4.4
					c2.9,2.9,4.1,7.4,3.8,13.3c-0.1,0.9-0.8,1.6-1.7,1.7l-12.2,0.8c2.7,1,4.7,2,6.2,3c2.6,1.8,4.4,4.1,5.3,6.8
					c0.9,2.6,1.1,5.5,0.6,8.6c-0.6,3.6-2,7-4.1,10.1c-2.2,3.1-4.9,5.4-8.1,7c-3.2,1.5-7,2.3-11.3,2.3L556.4,212.9z M562,168.3
					c-1.1,0-1.9,0.2-2.5,0.7c-0.6,0.5-0.9,1.1-1.1,1.8c-0.1,0.3,0,0.6,0.2,0.8c0.1,0.1,0.6,0.6,3.3,1.4c1.5,0.4,2.8,0.8,4,1.2
					c-0.2-0.3-0.3-0.7-0.3-1c0-1.9-0.3-3.3-0.9-4C564.3,168.7,563.3,168.3,562,168.3C562,168.3,562,168.3,562,168.3L562,168.3z"/>
			</g>
			<g>
				<path class="st2" d="M552.2,208.5c-7.9-0.1-13.3-2.1-15.9-6c-3-4.4-3.1-10.5-2.7-14.9c0.1-0.9,0.9-1.6,1.8-1.6
					c0,0,12.6,0.3,12.6,0.3c0.5,0,0.9,0.2,1.3,0.6c0.3,0.4,0.5,0.8,0.5,1.3c-0.1,2.5,0.2,3.6,0.6,4.4c0.7,1.5,1.9,2.2,3.8,2.2h0
					c1.5,0,2.6-0.4,3.5-1.1c0.9-0.8,1.4-1.7,1.6-2.7c0.1-0.9,0-1.6-0.5-2.2c-0.2-0.3-1.2-1.2-5.4-2.4c-6-1.7-10.1-4-12.4-7
					c-2.4-3-3.3-6.9-2.5-11.4c0.5-2.9,1.6-5.7,3.5-8.3c1.8-2.6,4.3-4.7,7.4-6.1c3-1.4,6.8-2.1,11.4-2.1l0.3,0c6,0,10.4,1.5,13.3,4.3
					c2.9,2.8,4.1,7.3,3.8,13.2c-0.1,0.9-0.8,1.6-1.7,1.7l-12.1,0.8c2.6,1,4.6,1.9,6.1,2.9c2.6,1.8,4.4,4,5.3,6.7
					c0.9,2.6,1.1,5.4,0.6,8.5c-0.6,3.6-2,6.9-4.1,9.9c-2.2,3-4.9,5.4-8.1,6.9c-3.2,1.5-7,2.3-11.3,2.3L552.2,208.5z M557.9,164.6
					c-1.1,0-2,0.2-2.5,0.7c-0.6,0.5-0.9,1.1-1,1.8c0,0.3,0,0.5,0.2,0.8c0.1,0.1,0.6,0.6,3.3,1.4c1.4,0.4,2.8,0.8,4,1.2
					c-0.2-0.3-0.3-0.6-0.3-1c0-1.8-0.3-3.2-0.9-3.9C560.2,164.9,559.2,164.6,557.9,164.6C557.9,164.6,557.9,164.6,557.9,164.6
					L557.9,164.6z"/>
			</g>
			<g>
				<path class="st2" d="M329.4,212.2c-0.6,0-1.1-0.3-1.4-0.7c-0.3-0.4-0.5-1-0.3-1.5l9.6-39h-8.7c-0.6,0-1.1-0.3-1.4-0.7
					c-0.3-0.4-0.5-1-0.3-1.5l2.5-10.3c0.2-0.8,0.9-1.4,1.7-1.4h36.3c0.6,0,1.1,0.3,1.4,0.7c0.3,0.4,0.5,1,0.3,1.5l-2.5,10.3
					c-0.2,0.8-0.9,1.4-1.7,1.4H355l-9.8,39.9c-0.2,0.8-0.9,1.4-1.7,1.4H329.4z"/>
			</g>
			<g>
				<path class="st2" d="M325.7,207.5c-0.6,0-1.1-0.3-1.4-0.7c-0.3-0.4-0.5-1-0.3-1.5l9.6-39h-8.7c-0.6,0-1.1-0.3-1.4-0.7
					c-0.3-0.4-0.5-1-0.3-1.5l2.5-10.3c0.2-0.8,0.9-1.4,1.7-1.4h36.3c0.6,0,1.1,0.3,1.4,0.7c0.3,0.4,0.5,1,0.3,1.5l-2.5,10.3
					c-0.2,0.8-0.9,1.4-1.7,1.4h-9.9l-9.8,39.9c-0.2,0.8-0.9,1.4-1.7,1.4H325.7z"/>
			</g>
			<g>
				<path class="st2" d="M490.8,212.2c-0.6,0-1.1-0.3-1.4-0.7c-0.3-0.4-0.5-1-0.3-1.5l12.7-51.5c0.2-0.8,0.9-1.4,1.7-1.4h14
					c0.6,0,1.1,0.3,1.4,0.7c0.3,0.4,0.5,1,0.3,1.5l-9.6,39h14.8c0.6,0,1.1,0.3,1.4,0.7c0.3,0.4,0.5,1,0.3,1.5l-2.5,10.3
					c-0.2,0.8-0.9,1.4-1.7,1.4H490.8z"/>
			</g>
			<g>
				<path class="st2" d="M487.1,207.5c-0.6,0-1.1-0.3-1.4-0.7c-0.3-0.4-0.5-1-0.3-1.5l12.7-51.5c0.2-0.8,0.9-1.4,1.7-1.4h14
					c0.6,0,1.1,0.3,1.4,0.7c0.3,0.4,0.5,1,0.3,1.5l-9.6,39h14.8c0.6,0,1.1,0.3,1.4,0.7c0.3,0.4,0.5,1,0.3,1.5l-2.5,10.3
					c-0.2,0.8-0.9,1.4-1.7,1.4H487.1z"/>
			</g>
			<g>
				<path class="st2" d="M451.3,213.4c-7.5,0-12.4-1.7-15.1-5.1c-2.6-3.3-3-8-1.4-14.8l5.2-21c2.6-10.7,11.6-16.8,24.6-16.8
					c7.2,0,12.3,1.8,15.1,5.4c2.4,3.1,3,7.2,1.7,12.2l-5.2,21C472.9,207.7,465.5,213.4,451.3,213.4L451.3,213.4z M462.2,168.7
					c-2.6,0-4,1.6-5,5.6l-5.2,21.2c-0.8,3.1-0.3,4.2,0,4.6c0.3,0.3,0.8,0.5,1.6,0.5c2.4,0,3.9-1.7,4.9-6l5.2-21.2
					c0.2-0.9,0.8-3.4,0.2-4.2C463.6,168.7,462.7,168.7,462.2,168.7L462.2,168.7z M392.7,213.4c-7.5,0-12.4-1.7-15.1-5.1
					c-2.6-3.3-3-8-1.4-14.8l5.2-21c2.6-10.7,11.6-16.8,24.6-16.8c7.2,0,12.3,1.8,15.1,5.4c2.4,3.1,3,7.2,1.7,12.2l-5.2,21
					C414.4,207.7,406.9,213.4,392.7,213.4L392.7,213.4z M403.6,168.7c-2.6,0-4,1.6-5,5.6l-5.2,21.2c-0.8,3.1-0.4,4.2,0,4.6
					c0.3,0.3,0.8,0.5,1.6,0.5c2.4,0,3.9-1.7,4.9-6l5.2-21.2c0.2-0.9,0.8-3.4,0.2-4.2C405,168.7,404.1,168.7,403.6,168.7L403.6,168.7
					z"/>
			</g>
			<g>
				<path class="st2" d="M447.5,208.8c-7.5,0-12.4-1.7-15.1-5.1c-2.6-3.3-3-8-1.4-14.8l5.2-21c2.6-10.7,11.6-16.8,24.6-16.8
					c7.2,0,12.3,1.8,15.1,5.4c2.4,3.1,3,7.2,1.7,12.2l-5.2,21C469.2,203.1,461.7,208.8,447.5,208.8L447.5,208.8z M458.5,164
					c-2.6,0-4,1.6-5,5.6l-5.2,21.2c-0.8,3.1-0.3,4.2,0,4.6c0.3,0.3,0.8,0.5,1.6,0.5c2.4,0,3.9-1.7,4.9-6l5.2-21.2
					c0.2-0.9,0.8-3.4,0.2-4.2C459.8,164.1,459,164,458.5,164L458.5,164z M389,208.8c-7.5,0-12.4-1.7-15.1-5.1c-2.6-3.3-3-8-1.4-14.8
					l5.2-21c2.6-10.7,11.6-16.8,24.6-16.8c7.2,0,12.3,1.8,15.1,5.4c2.4,3.1,3,7.2,1.7,12.2l-5.2,21
					C410.7,203.1,403.2,208.8,389,208.8L389,208.8z M399.9,164c-2.6,0-4,1.6-5,5.6l-5.2,21.2c-0.8,3.1-0.3,4.2,0,4.6
					c0.3,0.3,0.8,0.5,1.6,0.5c2.4,0,3.9-1.7,4.9-6l5.2-21.2c0.2-0.9,0.8-3.4,0.2-4.2C401.3,164.1,400.4,164,399.9,164L399.9,164z"/>
			</g>
			<g>
				<path class="st2" d="M589.4,223.9c-0.2,0-0.4,0-0.6-0.1c-0.2,0.1-0.4,0.1-0.6,0.1h-0.5c-0.2,0-0.4,0-0.6-0.1
					c-0.2,0.1-0.4,0.1-0.6,0.1h-0.9c-0.3,0-0.6-0.1-0.9-0.2c-0.3,0.1-0.6,0.2-0.9,0.2H583c-1,0-1.8-0.8-1.8-1.8v-1.9
					c-0.7-0.2-1.3-0.9-1.3-1.7v-0.9c0-1,0.8-1.8,1.8-1.8h3.4c0.1,0,0.2,0,0.2,0c0.1,0,0.2,0,0.2,0h1.4c0.3,0,0.6,0.1,0.9,0.2
					c0.3-0.2,0.6-0.2,0.9-0.2h1.4c1,0,1.8,0.8,1.8,1.8v4.5c0,1-0.8,1.8-1.8,1.8H589.4z"/>
			</g>
			<g>
				<path class="st2" d="M588.8,176.4c-4,0-7.2-3.2-7.2-7.2c0-4,3.2-7.2,7.2-7.2c4,0,7.2,3.2,7.2,7.2
					C596,173.2,592.8,176.4,588.8,176.4L588.8,176.4z"/>
			</g>
		</g>
	</g>
	<g id="Layer_3" class="st1">
	</g>
</g>
<g id="Layer_2">
	<path d="M35.2,209.9l22.9-51l17.2,0l5.5,51.1H68l-1-13.5l-14.1-0.3l-5.2,13.8H35.2z M56,188.8l10.4,0.2l-0.9-24.6L56,188.8z"/>
	<path class="st3" d="M556.2,128"/>
	<path class="st2" d="M305.4,193.9c45.4,0,82.1-36.8,82.1-82.1c0-45.4-36.8-82.1-82.1-82.1c-45.4,0-82.1,36.8-82.1,82.1
		C223.3,157.2,260.1,193.9,305.4,193.9z"/>
	<path class="st4" d="M383.9,137.4c0,0-4,14.5-13.5,25.8c-9.6,11.3-13.1,13.8-13.1,13.8l-13.8,9.9l-19,6.9l-15.1,1.8l-15.2-0.5
		l0.5-0.1l-0.5,0.1c0,0-19-2.3-32.4-11.1l-2.9,0.7c0,0-11.5,3.5-18.5,4c-7,0.5-8.6,1.8-18.7-1.5c-10.1-3.3-11.9-3.2-11.9-3.2
		s-12.2-2-15.3-3c-3.1-1-6.4-1-5.2-9.1c1.2-8.1,9.6-27.1,11.9-30.1c2.3-3.1,6.5-9.4,14.9-16.7c0,0,4.4-3.9,7.6-12.1
		c3.1-7.8,6.2-11.1,7.7-13.2c1.5-2.1,1.8-3.5,2.6-4.5c0.8-1,4.4-4.4,12.2-4.6c7.7-0.2,8.1,1.6,16.5-1.1l7-2l-2.6-2.5v3.2l-4.7-4
		l-0.5,2.8c0,0-4.3-2.4-5.4-6.4c0,0-2.3,3.1-2.1,3.8c0,0-4.6-4.7-2.7-13.8c0,0-1.7,1.4-1.8,2.1c0,0-2.9-2.3,2.9-12.5l-2.9,0.8
		c0,0,3.8-11.2,14.2-8.3l0.2-2.2c0,0,3,0.4,4.1,2.1c0,0-1.1-7.3,1.9-8.3c0,0-10.4-6,7.5-9.3c0,0,8.9-24.5,28-24.7
		c0,0,9.9-8.8,14.8,1.2c0,0,9.2-0.3,18.9,20.5c0,0,5,10.9,5.5,22.5c0,0,8-2.8,13,2c0,0-7,2.1-7.2,2.5c0,0,7.2,2.1,8.8,8.7
		c0,0-3.4-1.5-4.5-1.5c0,0,4,7.6,0.4,13.7c0,0-1.5-1.7-2-2.2c0,0,0.3,4.5-5.2,10.9l-0.4-5c0,0-2.7,6.4-10.2,9.7c0,0,2.5,3.4,2.9,5.8
		c0,0,7.4,5.7,8.6,5.8c0,0,0.3-0.2,0.3-0.6c0-0.4-0.1-2.6,1.3-4.2c1.4-1.6,2.4-2.6,2.4-2.6s-0.2-1.9,2.4-3.2l0.8-14.8l2.7-3.3
		l1.6,3.8l-1.1,15.1c0,0,2,0,2.3,1.8c0,0,2.4,3.6,2.4,5.6c0,2,0.1,6.3,0.1,6.3s6.2,3.7,7.7,4.7c1.6,1,6.8,4.7,7.6,6
		c0,0,0.9,3.2,1.7,8.9c0.8,5.7,1.6,7.4,1.6,7.4L383.9,137.4z"/>
	<path class="st3" d="M322.5,169.4c0,0,0.4-1.1,1.3-0.7c0.9,0.4,1.3,1,1.3,2c0,1,0.1,2.8-0.8,3.5c-0.9,0.7-2.4,0.6-2.6-0.8
		C321.6,171.8,321.6,170.6,322.5,169.4z"/>
	<g>
		<path class="st5" d="M278.6,171.7c0,0,0.2-1.2,0.8-0.3c0.6,0.8,1.6,2.7,2.1,4.6c0.5,1.8,1.4,5.6,1.9,7.2c0.5,1.6,0.8,2.4,0.8,2.4
			s0.6,0.2,1.1,1c0.5,0.8,2.5,4.9,2.5,5c0,0.2-0.2,0.2-0.4,0.1c-0.3-0.1-9.9-2.3-13.4-4.2c0,0-0.7-1.8-0.3-2.5
			c0.3-0.7,0.8-2.2,1.7-3.6c0.9-1.3,2.2-4.4,2.6-6.5C278.4,172.6,278.6,171.7,278.6,171.7z"/>
		<path class="st5" d="M337.6,177.7c0,0-0.4,0.7-1.1,0.2c-0.6-0.5-4.2-3.8-5.4-8.5c-1.2-4.7-1.5-6.3-1-7.5c0,0,0.6-2.4,1.7-3.9
			c0,0,0.8-1,0.7-1.2c-0.1-0.2,0-1-0.4-0.7c-0.4,0.2-1.1,0.7-1.3,0.6c-0.2-0.1-0.2-0.2-0.3-0.5c-0.1-0.3-1.2-2.6-0.4-6.3
			c0,0,0.5-2.3,1.4-3.9l0.5-0.7c0,0,0.1-0.9-0.3-0.6c-0.4,0.3-2,1.2-2.3,2.5c0,0,0.1,0-0.3,0.1c-0.4,0.1-3.7,0.2-4.2-0.2
			c-0.5-0.3-1.8-1.7-1.8-2.5c0-0.8,0-1.7,0-1.7s-0.8-1.6-1.1-0.6c0,0,0.2-0.2,0.2,1.4c0,1.5,0,2.2,0,2.2s-0.2,0.1-0.4-0.1
			c-0.3-0.2-0.6-0.5-0.8-0.1c-0.2,0.4-0.1,0.1,0,0.2c0.1,0.1,1,0.9,1,0.9l-0.9,0.2l-1.2-0.7c0,0,0-0.3,0-0.8c0-0.5-0.3-2.5,1.2-4.3
			c1.5-1.8,2.7-0.8,2.7-0.8s0.3,0.3,2.3,0.4c1.9,0.1,5.5-0.5,5.9-0.3c0.4,0.2,1.5,1,1.8,1.9c0.3,0.8,1.4,3.5,2.3,4.5
			c1,1.1,1.7,1.5,1,0.6c-0.7-0.8-1.4-2.3-1.5-2.8c-0.1-0.4-0.2-3.9-3-5.3c0,0-0.7-0.2-2.5,0c-1.8,0.2-4.8-0.5-4.8-0.5
			s0.2-1.6,2.1-2.1c1.2-0.4,2.3-0.3,3.3,0c1,0.3,3.1,0.6,4.2,0.8c1,0.2,2.2,0.5,2.8,1.9c0.5,1.3,1,3.1,2.5,4.7
			c1.6,1.6,3.2,3.9,2.9,2.8c0,0-1-1.6-1.5-2.4c0,0-1.1-1.6-1.3-2.6c-0.3-0.9-0.6-2.8-1.5-3.7c-0.8-0.9-2-1.6-2.9-1.7
			c-0.9-0.1-2.9,0-3.1-0.3c-0.3-0.3,0.2-0.4,0.2-0.4s4.3-0.5,6.2,0.2c1.9,0.6,2.2,1.8,2.4,2.2c0.2,0.4,1.4,1.6,1.6,1.8
			c0.2,0.3,0.5,0.7,0.8,1.2c0,0,0.2,0.5,1.9,1.9c1.8,1.4,3.5,3.2,3.4,5.6c-0.2,2.4-0.7,3.2-0.7,3.2s1.9,1.1,2,4.4
			c0.2,3.4,0,3.4-0.7,8c-0.7,4.6,0.2,7.1,0.4,7.6l0,0.2c0,0-4.4,0-8.1,2.4C338.4,176.8,337.6,177.7,337.6,177.7z"/>
		<path class="st5" d="M266.7,69.2c0,0,0.6,0.2,1,1.1c0.4,0.8,1.8,4,5.3,6.9c2.7,2.3,6.1,2.4,7.6,2.9c1.5,0.5,1.9,0.9,1.6,3.9
			l-0.6,1.8c0,0-0.2,0.7-0.9,1c-0.7,0.3-2.6,1.3-3.9,1.3c-1.3,0-1.6-0.2-2.8-0.5c-1.2-0.3-2.6-0.6-5.6-3.9c0,0-2.8-2.9-3.4-7.3
			c0,0-0.6-2.4,0-4.1C265.9,70.7,266.7,69.2,266.7,69.2z"/>
		<path class="st5" d="M283.3,81.7c0,0-0.5-1.2,0.4-1.6c1-0.5,3.8-1.6,7.6-4.3c3.1-2.2,5.1-4.3,7.5-8.8c2.3-4.2,1-4.8,0.7-4.9
			c-0.2-0.2-0.4-0.5-3.9-1.3c-3.5-0.9-9.7-1.5-9.7-1.5s0.6-2.8,5-7.2c0,0,1.8-1,3.5-0.7c1.6,0.3,1.6,0.5,2.4,1.5l-0.2,0.2l-3.9-0.1
			c0,0-0.8,0.2-0.2,0.4c0.6,0.2,4.9,0.6,5.6,1.4c0.7,0.8,0.5,0.8,0.5,0.8s-5.9-0.8-6.7-0.5c-0.5,0.2-0.8,0.4,0,0.6
			c0.8,0.2,6.8,1.3,7.3,1.5c0.5,0.2,1,0.5,1,1.1c0,0-0.1,0.2-0.4,0.1c-0.3-0.1-5.2-0.6-6.8-0.4c-1.3,0.2-0.3,0.7,0.2,0.8
			c0.5,0.1,2.9,0,7.4,1.1c0,0,1,0.1,1.5,0.8c0.5,0.7,4,4.9,8.3,6.2c3.7,1.1,7.1-0.2,9.9-2.5c2.6-2.3,2.3-3.8,2.3-3.8l2.2,0.6
			c0,0,0.5-0.4,0.9-0.6c0.3-0.2,5.7-4.8,14.5-5.5c0,0,0.1,0,0,0.3c-0.2,0.3-3.6,3.2-3.7,4c-0.1,0.8-0.1,0.7,0.8,0.3
			c0.8-0.4,3.2-2.2,6.9-3.2c3.7-1,6-1.7,10.5-0.5c0,0,0.2,0.2,0,0.2c-0.2,0-7.4,0.6-8.9,3.5c0,0-0.6,0.4,0.5,0.6
			c1.1,0.2,3.2,0,4.3,0.5c1.1,0.5,4.1,1.3,6.5,4.4c0,0,0,0.3-0.3,0.3c-0.3-0.1-3.4-2.2-6.2-1.7c0,0-0.9,0.1,0,0.7
			c0.9,0.6,3.3,1.9,4,4.2c0.8,2.3,2.1,6.1,1.1,10.2c0,0-2.3-5.4-3.9-6.4c0,0-0.8-0.6-0.5,0.4c0.3,1,1.7,6.5-1,11.9
			c0,0-0.6,0.6-0.5,0.4c0-0.2,1-4.5,0-6.7c0,0-0.7-1.6-1,0.2c-0.3,1.7-1.2,5.5-4.7,8.8c-3.5,3.2-5.8,4.7-9,5.8c0,0,3.8-2.6,4.5-4.4
			c0.6-1.8,1-2.3,0.8-2.8c-0.2-0.5-0.1-1.1-0.8-0.3c-0.7,0.8-4.5,4.9-10.9,6.7c0,0,3-4.3,3-4.9c0-0.4,0.1-1.3-0.8-1
			c0,0,0.5,0.6-9.4,2.4c0,0-4.5,0.7-7,1.1c-2.6,0.5-8.6,1.9-10.1,4.8c-1.4,2.9-2.1,4.2,0,6.4c0,0,0.3,0.2,0,0.4
			c-0.3,0.1-1.9,1.3-4.4,0.3c0,0-1.9-1-1.8-0.1c0.2,0.8,1.2,3.5,3.1,5.4c0,0-0.4,0.2-1,0.2c-0.7,0-6.1,1-11.2-4.9c0,0-1-0.8-0.9,0.5
			c0,0,0.8,3.5,3.7,6.2c0,0,0.1,0.1-0.2,0.1c-0.3,0-4.7-1.2-7.1-3.6c-2.4-2.4-2.3-1.8-3.7-5.8c0,0-0.4-0.7-0.6,0.3
			c-0.2,1-0.9,2.7-0.9,3.9c0,1.1,0,3,0,3s-3.5-2.3-4-4.6c-0.5-2.3-0.6-3.4,0-5.2c0,0-0.2-1-0.5-0.6c-0.3,0.4-2,3.1-2,3.6
			c0,0-0.4,0.2-0.3-0.3c0-0.5,0-5,1.7-7.1c1.7-2.1,2.8-3.1,2.8-3.1l11.1,0.8l5.8,0.8c0,0,1.3-0.1,0.2-0.7c-1.1-0.5-4.8-2-4.8-2
			s-3.6-1.3-5.4-4.6L283.3,81.7z"/>
		<path class="st5" d="M265.6,52.1c0,0,0.1,0.9,0.3,1.4c0.2,0.6,0.2,1,0.2,1.2c-0.1,0.3-0.6,0-0.8-0.1c-0.2-0.2-1.6-1-4.2-0.8
			c-2.6,0.2-6.1,1.2-9.4,5.2c0,0-0.3,0.5,1-0.1c1.3-0.6,2.3-1,2.7-0.8c0.4,0.2,0.7,0.1,0.4,0.5c-1.4,1.5-5.4,7.7-5.2,11.1l2.9-3.2
			c0,0,0.9-0.3,0.7,0.4c-0.3,0.7-0.9,2.3-1,4.2c-0.1,1.9-0.8,7,1,10.8c0,0,1.5-4.1,1.5-4.9c0-0.8,0.7-0.9,0.7-0.9s0.1,0.8,0.2,1.8
			c0,0,1.3,3.9,4.3,7l0-3.3c0,0,0.5-1.5,0.9-0.1c0,0,0.7,1.3,3.7,4.4l-0.3-3.7c0,0-3.2-4.2-2.5-9.3l0.5-2.6c0,0-2.6-1-3.5-2.4
			c0,0-0.9,2.6-0.8,2.9c0,0.3-0.2,1-0.8,0.3c0,0,0.2-4.1,1-6.4c0,0,0.1-1.1,1.1-2.1c1.1-1,2.6-2.1,2.9-2.1c0.3,0,1.6-0.2,0.7,0.7
			l-0.7,0.3c0,0-2.1,2.4-2,3.4c0.1,0.9,2,4.5,2.5,4.7l2.2-2.6c0,0,0-0.2-0.1-0.4c-0.1-0.2-1.2-3.7-1.1-4.7c0,0,1.2-1.1,5.5-2.1
			l0.5-0.3c0,0-1.4-1.5-1.6-3.5c-0.2-2-0.6-2.2-1.2-2.6c-0.6-0.4-2.2-1.4-2.2-1.4L265.6,52.1z"/>
		<path class="st5" d="M304.1,110.1c0,0,3.9,0.2,6.1-0.6c0,0,0.4-0.4-0.1-0.7c-0.5-0.3-1.6-0.8-1.6-1.2c0-0.3,0-0.3,0.6-0.5
			c0.5-0.2,3.6-1.4,5.4-3.1c0,0,0.5-0.3-0.1-0.6c-0.6-0.2-1.8-1.1-1.8-1.6c0,0,7.4-5.8,9.3-6.7c2-0.8,3.3-1.5,3.9-1.4
			c0,0-0.2,4.2,1,8.1c1.2,3.9,2,6.2,2.8,7.2c0.8,1,1,1.2,1,1.3c0,0.2,0.1,0.5,0.3,0.5c0.2,0,0.5,0,0.5-0.4c0-0.3-1.1-2.6-1.4-3.8
			c-0.3-1.2-1.1-7.3-1.1-7.3s0.2-0.2,0.5,0.3c0.3,0.5,3.5,4.5,3.2,6.9c-0.3,2.3-0.8,5.2-1.6,6c-0.7,0.7-3.9,3.4-8.5,4.5
			c-4.6,1.2-10,2.5-13.6,2.1l-0.3-0.3c0,0-7.2-4.7-7.9-6.3c0,0,0-0.3,0.2-0.2c0.2,0.1,3.8,0.2,4.4-0.2c0.6-0.4,0.7-0.5,0.2-0.8
			C305,111.1,304.5,111.1,304.1,110.1z"/>
	</g>
	<path class="st6" d="M267.6,64.2c0,0-0.8-1-0.6-1.1c0.3-0.2,3.2-1.6,7.5-1.9c0,0,6.7-1.5,12.8-0.4c6,1.1,8.4,2.2,9.8,3.1
		c0,0-2.8-0.1-3,0.2c-0.2,0.3-0.2,1.2,0,1.8c0.1,0.6,0.1,1.6,0.1,1.6s-6.2-2.2-8.1-2.7c-1.9-0.5-8.1-2.3-8.9-2.1
		c-0.9,0.2-0.5,0.4-0.3,0.6c0.1,0.2,1.1,1.6,1.1,1.6l-0.4,0.3C277.5,65.1,276.2,63.8,267.6,64.2z"/>
	<g>
		<polygon class="st2" points="272.9,58.3 272.3,57 279,50.4 		"/>
		<polygon class="st2" points="273.1,58.9 276.1,55.5 276.8,56.1 277.2,56 288.5,45.9 276.6,59.3 273.5,59.5 		"/>
		<polygon class="st2" points="280,59.1 280.9,57.7 283.7,54.8 281.1,58.7 281.1,59.1 		"/>
		<polygon class="st2" points="291.6,49.2 294.2,44.8 295.9,44.7 		"/>
		<path class="st2" d="M302,56.3l12.2-9.1l2.8,0.6l-10.2,8.4c0,0-0.3,1,0.9,0.2c1.2-0.8,12.7-7.9,12.7-7.9l0.4,0.2l-13,9.5
			c0,0-0.3,1.3,0.6,0.6c0.9-0.7,13.7-9.9,13.7-9.9l0.5,0.2l-17,12.4C305.6,61.4,303.4,60.1,302,56.3z"/>
		<path class="st2" d="M306.5,61.9l17-12.3l0.1,0.2l-16.7,12.7C306.9,62.4,306.5,62.7,306.5,61.9z"/>
		<path class="st2" d="M307.4,63l14-10.7l-13.5,11.1C307.9,63.3,307.5,63.5,307.4,63z"/>
		<path class="st2" d="M310.1,64.7l9.1-7.2l-8.3,7.5C311,65.1,310.2,65.4,310.1,64.7z"/>
		<path class="st2" d="M324.8,50c0,0,1.2,0.2,1.2,0.5c0,0.3,0,3.2-0.2,4c-0.2,0.8-0.8,2.9-0.8,2.9s-0.8,0.3-0.8,0
			C324.3,57.1,325.6,53.1,324.8,50z"/>
		<path class="st2" d="M327.8,50.8c0,0,0,4.4-0.3,5.4l8.6-2.9C336,53.3,327.9,51.1,327.8,50.8z"/>
	</g>
	<path class="st2" d="M332.5,55.6"/>
	<path d="M323.6,169.6c0.3,0,0.6,0.3,0.6,1.2c0,0.9-0.6,2.4-0.9,2.4c-0.3,0-0.5-0.8-0.5-1.7C322.8,170.5,323.3,169.6,323.6,169.6z"
		/>
	<path class="st7" d="M351.6,166.4c0,0,1.7,0.2,4.1-0.7c0,0,0.2-0.7,0.2,0.4c0.1,1.1-0.6,3.9-1.9,6.2c0,0-1.3-1-2.7-0.8
		C351.4,171.5,351.4,170.2,351.6,166.4z"/>
	<path class="st3" d="M300.8,147.6c0,0,7-0.3,8.5,0.3c1.5,0.6,1.6,0.6,1.5,1.2c-0.1,0.6-0.1,0.6-0.7,0.6c-0.5,0-1,0.1-1,0.1
		s0.2-0.8-0.7-1.1c-0.8-0.3-4.9-0.6-7.5-0.5L300.8,147.6z"/>
	<path d="M316.1,127.3"/>
	<path class="st2" d="M316.1,127.3c0,0-0.4,0.3,3.3-0.8c3.7-1.1,8.8-3,8.8-3s-0.9,4.2-1.4,4.6c-0.5,0.5-1.8,1.5-1.8,2.1
		c-0.1,0.6,0.1,0.6-0.2,1c-0.3,0.4-2.1,5.5-2.7,7c0,0,0.2,0.2-0.5,0.6c-0.6,0.4-1.3,0.6-1.6,1.1c-0.3,0.6-0.8,2.1-1.1,3.4h-0.3
		c0,0-0.8-2.1-1.7-2.8c0,0-0.4-4.1-1.2-5.3c-0.8-1.2-0.2,0-0.2,0L316.1,127.3z"/>
	<path class="st2" d="M316.3,126.3l-0.1-0.8c0,0,6-0.2,12.1-3.6l0.2,0.8c0,0-7,3.3-12.4,3.6"/>
	<path class="st2" d="M316.4,124.6c0,0,0.4-2.3-2.3-2.3c-2.7,0.1-4.7,0.2-4.7,0.2l-0.3-1.3c0,0,6.7,0.1,12.4-1.8
		c5.7-1.8,3.9-0.4,11.8-6.4l0.1,0.2c0,0-4.2,4.1-4.3,4.5c-0.1,0.4,0.1,2.6-0.3,2.9C328.5,120.8,322.1,124.4,316.4,124.6z"/>
	<g>
		<path class="st2" d="M350.3,113l0.3,0.4c0,0-0.8,2.3-0.6,4.9l-1.7,0.4C348.3,118.7,349.1,113.9,350.3,113z"/>
		<polygon class="st2" points="355.7,113.3 356.6,113.2 356,118 354.8,118.1 		"/>
		<path class="st2" d="M360.2,113.5c0,0,0.7-0.2,0.7,0.2c0.1,0.3-0.1,5.7-0.1,5.7l-1.2-0.4C359.7,119.1,360.7,116.1,360.2,113.5z"/>
		<path class="st2" d="M363.4,115.3l0.6,0.2l-0.2,4.7l-0.9-0.6C362.9,119.6,363.7,117.2,363.4,115.3z"/>
		<path class="st2" d="M352.9,103.5l1.8-0.1l-0.8,7l-2.1,0.2C351.8,110.6,351.6,106.2,352.9,103.5z"/>
		<path class="st2" d="M350.8,103.8h1c0,0-1.3,6.3-0.9,7.1l-1.3,0.4C349.7,111.3,349.7,106.6,350.8,103.8z"/>
		<path class="st2" d="M358.8,103.5c0,0,1.5,0.4,1.7,0.6c0.1,0.3-0.2,6.7-0.2,6.7l-1.7-0.4L358.8,103.5z"/>
		<polygon class="st2" points="361.6,104.2 362.6,104.7 362.5,111.5 361.4,111.1 		"/>
		<path class="st2" d="M355.7,103.3l2.4-0.1l-0.7,7.1l-2.2-0.2C355.2,110.2,355.2,105.8,355.7,103.3z"/>
		<path class="st2" d="M354.6,96.7c0,0,0.6-1.1,1.1-1.2c0.6,0,3.8,0.2,4.1,0.4c0.3,0.3,0.6,0.7,0.6,1.1c0,0.5-0.1,0.2-0.1,0.2
			L354.6,96.7z"/>
		<polygon class="st2" points="356.8,80.5 358.8,77.6 359.5,79.5 358.4,94.5 358.1,94.4 357.9,93.4 357,94.1 356.8,93.5 358.1,91.3 
			357.7,90.9 356.9,91.9 356.6,91.4 358,88.9 357.6,88.3 356.9,88.9 356.9,88.4 358.1,86.1 357.9,85.6 357.3,85.8 357.1,85.1 
			358.7,82.8 358.7,81.7 357.4,83.6 357.3,82.5 358.7,79.8 358.6,78.6 357,81.1 		"/>
	</g>
	<path d="M364.6,128.4c0,0,0.5,0.1,0.5,0.5c0,0.4-0.3,0.5-0.6,0.4C364.2,129.1,364.2,128.5,364.6,128.4z"/>
	<circle cx="297" cy="83.8" r="1.3"/>
	<circle cx="292.7" cy="80.8" r="1.3"/>
	<circle cx="298.5" cy="76.7" r="1.3"/>
	<path d="M334.8,64.6c0,0-1.1-0.5-0.6-1.2c0.6-0.7,2,0.8,2,0.8s1.6,0.7,2.6,1c1,0.3,4.7,2.1,4.8,2.7c0.1,0.6-1.4,5.3-1.5,6.4
		c0,1.1-0.2,2.1-0.7,2c-0.5-0.1-0.6-0.3-0.1-2.6c0,0-0.1-3.6-0.6-4.2c0,0-4.2,1.7-6.6,4.4c-2.4,2.7-7.8,11.7-16.5,8.6
		c0,0-4.6,7.6-11.9,3.5c0,0-4.7,4.9-7.8,5.3c0,0-2.3,0.6-0.2-1c2.2-1.6,4.8-3.8,8.5-11.4c0,0,0.6-1.8,1.1-0.3c0,0-0.3,0.5-0.6,1.5
		c-0.3,1-1.4,3.6,1.2,3.2c2.7-0.4,6.6-1.9,8.8-4c2.2-2.1,3.8-4.3,4.1-5.4c0.4-1.1,1.1-2.2,1.2-0.5c0,1.7-1.6,5.2-1.6,5.2
		s-0.2,0.3,0.5,0.8c0.7,0.5,3.7,2.5,6.3,0.1c2.6-2.4,8.3-10.6,10.6-11.5c0,0,0.4-0.8-2.2-2.7L334.8,64.6z"/>
	<circle cx="276.4" cy="81.5" r="1.3"/>
	<circle cx="272" cy="82" r="1.3"/>
	<circle cx="268.4" cy="77.7" r="1.3"/>
	<path d="M269.9,40.4c0,0,4.5-2.4,7.7-2.8c0,0,1.9-0.1,1.5,0.2c-0.4,0.2-4.9,1.4-6.6,2.1c-1.6,0.8-1.5,1.1-1.9,1.3
		C270.2,41.3,269.4,41.1,269.9,40.4z"/>
	<path d="M337.3,150.8c0,0,0.4-0.3,0.6-1.9c0,0,0.6-0.9,1,0.1c0.4,1,1.6,3.7,0.9,6.6c0,0-0.4,1.2-0.6,0.5c-0.2-0.7-0.4-2.9-0.8-3.7
		c-0.5-0.9-1.2-1.3-1.2-1.3L337.3,150.8z"/>
	<path d="M342.9,150.4c0,0,0.2-0.1,0.4-0.6c0.3-0.5,0.2-1.3,0.8-1.4c0.6-0.2,0.5,0.9,0.5,0.9s1.3,0.6,1.3,3.5c0,3,0.1,3.3-0.2,3.8
		c-0.3,0.5-0.6,0.3-0.6-0.6c0-0.8,0.4-2.7-0.6-4.5c0,0-1.4-0.7-1.7-0.9C342.7,150.3,342.9,150.4,342.9,150.4z"/>
	<g>
		<path class="st7" d="M364,112.3v-1.5c0,0,1.6-0.3,4.3,2.3c2.8,2.6,4.4,4.8,4.4,4.8s0.8,0.3,0.6-0.2c-0.3-0.5-0.7-1.1-0.7-1.1
			l0.1-0.6c0,0,3.2,2.8,4.4,5.6c0,0,0.2,4.3-0.9,7.8l-0.9,2.2c0,0-0.4,1,0.3,0.2c0.7-0.8,2.3-3.1,2.8-4.5c0.5-1.4,0.9-2.3,0.9-2.3
			s0.4,1.9,0.5,3.8c0.1,1.8,0.1,10.2,0.1,10.2s1.2,2.6,1,3.3c-0.2,0.7-3.2,7.1-4.7,9.7c-1.5,2.6-3.8,7-10.6,14.7
			c0,0-5.8,6.6-9.1,8.6c0,0-0.3,0.3-0.6-0.2c-0.4-0.4-1.2-1.3-1.1-1.6c0.1-0.3-0.2-0.7,0.2-1c0.4-0.4,1.8-2.4,2.8-4.8
			c1-2.4,1.3-3.6,1.4-4c0,0,4.1-3.1,5.5-7.5c1.3-4.5,1.3-5.4,1.8-9.8c0.5-4.4,1.3-16.9,1.3-16.9l0.2-3.8c0,0,0.1-1.5-1.4-2.2l0,0
			c0,0,0.1-4.4-0.4-7C365.4,114,365.8,113.8,364,112.3z"/>
		<path class="st7" d="M266.5,163.1l10.1,4.2c0,0,0.8,3,0.5,5.6c-0.3,2.6-0.3,2.4-0.6,3.3c-0.3,0.8-2.6,5.7-3,6.6
			c-0.3,0.8-1.3,1-2.4,1.1c-1.1,0.1-5.4,0.3-6.1,0.1c-0.7-0.2-2.1-0.5-2.2-0.9c-0.2-0.3-0.2-0.5,0.2-1c0.3-0.5,2.6-4.6,3.2-7.6
			c0,0,0.9-4.5,0.8-7.5C266.8,163.8,266.5,163.1,266.5,163.1z"/>
		<path class="st7" d="M337.5,187.4c0,0-1.8-6.4,1.5-9.5c3.4-3.1,8.9-5.7,12.7-4.9c3.7,0.7,3.4,4.3,3.4,4.3S345.6,185.9,337.5,187.4
			z"/>
		<path class="st7" d="M322.5,167.4l5.5-1c0,0,1.7,8.1,8.1,13.5c0,0-0.5,3.3-0.2,8.2c-11.9,6-19.3,4.7-19.3,4.7l2.3-4.7
			c0,0,2.6-4.4,2.3-11.3c-0.3-6.8-1.1-8-1.1-8S321,167.6,322.5,167.4z"/>
		<path class="st7" d="M284.9,107.9c0,0,3.5,2.3,6.1,2.3c2.6,0,3.2-0.2,3.2-0.2s0.5,0.2,0.8,0.5c0.3,0.4,1.8,1.6,3,2.3
			c1.2,0.7,5.4,3.5,5.5,3.7c0.2,0.2,0.2,0.4,0.5,0.7c0.3,0.3,2.2,1.9,2.2,1.9s-1.1,0.2-1.5,0c-0.5-0.2-2.1-1.3-3.2-0.5
			c-1.1,0.8-5.3,6.2-7,11.2c0,0-0.3,0.3-0.4,0s-0.9-5.3-1.7-7.8c0,0-0.3-1-2.1-3.7c-1.8-2.6-1.9-3.1-2.6-3.7c-0.7-0.6-1-0.7-1.3-1.4
			C286.2,112.7,284.8,108.6,284.9,107.9z"/>
		<path class="st7" d="M323.2,138.1c0,0,2.1-5.1,2.5-6.1c0.4-1,0.7-2.2,0.7-2.2s1.9-0.9,2.7-3c0.8-2.1,0.7-2.1,0.9-3.3
			c0.2-1.1,0.3-2.5,1.8-3.9c1.5-1.4,3.3-4.1,3.3-4.1l0.3-0.1c0,0,4,2.2,4,6.1l-0.2,3.5c0,0,2.3,3.8,3.3,3.9c0,0,0.3,0.2,0.3-0.4
			c0-0.5-0.3-3.9-0.3-3.9s-0.2-4.5,0.2-6.1c0.4-1.6,1-3.4,0.9-4.5c-0.1-1.1-1.1-7.7-1.1-7.7s-0.5-2.7-0.3-3.1l6.6,3
			c0,0-0.6,5.1-0.4,5.9c0,0-2.5,2.6-2.7,5.8l-0.7,3.8c0,0-0.9,1.4-1.1,3.1c-0.2,1.7-1,7.1-1,7.1s0,1.7-0.5,2.3c-0.5,0.6-0.6,1.1-1,1
			c-0.4-0.1-1.3-0.9-2-1c-0.7-0.1-1.3-0.2-2.7,0.2c-1.3,0.3-5.2,0.2-5.8,0.5c-0.5,0.3-0.6,0.7-0.9,0.7c-0.3,0.1-0.6-0.3-0.6-0.3
			s-2.5-0.1-3.7,1c-1.2,1.1-1.5,2.1-1.8,2.3c-0.3,0.2-1,0.2-1,0.2L323.2,138.1z"/>
		<path class="st7" d="M329.3,96.2c0,0-0.4-0.2-0.3-0.9c0.1-0.7-0.2-1.1,0.4-1.2c0.5-0.2,1.6-0.6,2-0.7c0.4,0,0.7-0.1,0.5,0.1
			c-0.2,0.2-0.5,0.3-0.3,0.7c0.2,0.4,0.5,0.4,1,0.4c0.5,0,2.2-0.5,2.8-0.6c0.6-0.1,0.6-0.2,0.7,0.2c0.2,0.4,1.9,2.6,1.9,2.6
			s0.3,1,0.5,2.3c0.3,1.3,0.6,2.1,0.6,3.8c0,1.7-0.3,2.4,0.1,2.4c0.4,0,0.4-0.2,0.5-0.8c0-0.6-0.1-1.6,0.2-1.9
			c0.2-0.3,0.6-0.7,0.7-0.5c0,0.2,0.9,4,0.9,4s1.4,5.4,1.3,6.3c-0.2,0.9-0.8,3.7-0.8,4.6c-0.1,1-0.1,6.7-0.1,6.7s-0.4,0.3-0.6-0.2
			c-0.2-0.5-0.5-1.1-0.5-1.9c0-0.8,0.4-4.6-0.7-6c-1-1.3-3-3-3-3s-0.9-0.5-1.5,0.4c-0.6,0.9-1,1.8-1.4,1.9c-0.4,0.1-0.9,0.5-0.9,0.4
			c0-0.1,0-0.7,0.4-1.3c0.4-0.6,0.8-0.7,0.9-0.8c0.1-0.2,0-0.4,0.3-0.9c0.3-0.5,0.9-1.5,1.2-2.3c0.3-0.8,0.3-0.8-0.2-3.3
			c-0.5-2.5-1.2-5.6-1.4-6.3c-0.2-0.7-0.8-2.2-0.8-2.7c-0.1-0.4-0.6-1.9-0.6-1.9s-0.4,3-0.8,3.3l-0.5-0.3L329.3,96.2z"/>
		<path class="st7" d="M274.4,103.2l0.3,0.8c0,0,2.3,5.1,8.9,6.6c0,0,0.1,0,0.3,0.5s1.3,2.6,3,4.9c1.7,2.2,3.1,4.2,4,6.4
			c0.9,2.1,2.3,4.9,2.5,8.3c0,0,0.6,2.8,0.4,3.4c0,0,0.1,1,0.4,0.7c0.5-0.4,0.4-0.3,0.5-1.2c0,0,1.1-3,3.1-5.8c0,0,0.8-1.5,1.6-2.9
			c0.7-1.5,1.6-2.9,2.1-3c0.6,0,3.6,0.1,4.3,0.3c0.7,0.2,0.5,0.2,0.8,0.7c0.3,0.4,1.6,2,2.4,2.1c0.8,0,4.2,0.3,4.2,0.3
			s0.2-0.2,0.6,0.6c0.5,0.8,1.2,2.3,1.2,2.9c0,0.6,0,0.5-0.2,1.1c-0.2,0.6-0.8,2.8-0.7,3.3c0.1,0.6,0.3,0.8,0.5,1.4
			c0.2,0.6,0.6,1.3,1.1,3.2c0.5,2.1,0.3,1.8,0.3,1.8s-2.8-1.2-4.6-1.3c-1.8,0-8.5,0-10.1,0.2c-1.6,0.2-6.1,0.3-8.1,1
			c-2,0.7-3.8,1.7-4.2,5.2c-0.5,3.5-0.6,4.2-0.6,4.2L288,160c0,0,0.2,7.1,0.7,10.2c0.5,3.1,1,3,1.5,3.6c0.5,0.6,2.7,2.8,6.7,2.8
			c4.1,0,14.6,0.1,14.6,0.1s4.2-1.1,4.5-1.6c0,0,0.7-0.5,1-1.5c0.3-1,0.6-3.4,1-3.8c0.4-0.3,0.5-0.7,0.5-0.7s0.7,5.1,0.8,6
			c0.1,0.8,0.3,1.8,0.3,3.4c0,1.6,0,3.2-0.7,5.6c-0.6,2.4-1.2,3.4-1.2,3.4s0.6,3.5-6.7,4.2c-5.7,0.6-16.4-0.3-16.4-0.3s-4.3,0.2-6-2
			c-0.5-0.7-2.7-4.3-2.7-4.3s-2-6.5-2.4-7.8c-0.5-1.3-1.8-4.4-1.9-4.9c-0.1-0.5,0.1-0.9-0.4-1.2c-0.5-0.3-2.9-1.7-3-2
			c-0.1-0.3,0-1.3-0.1-1.6c-0.1-0.3-0.4-1.6-1.3-1.7c0,0-0.5,0-0.6-0.5c-0.2-0.5-0.5-2.3-1.7-6.1c-1.2-3.8-2.3-7.3-4.7-11.9
			c0,0-0.6-0.7-0.3,0.5c0.3,1.2,1.3,5.4,2.1,8.5c0.8,3.1,2.3,8.5,2.3,8.5s-7-2.7-7.3-3.1c-0.3-0.4-0.5-1.4-1.8-1.8
			c0,0-0.2,0.2-0.3-0.3c-0.2-0.5-1.4-7-1.2-9.1c0,0,0.9,1.9,1.9,3.7c1,1.8,3.3,5.9,3.3,5.9s0.8,1,0.7-0.1c-0.1-1.1-0.6-1.7-0.6-1.7
			s-2.8-7.8-2.9-8.6c-0.1-0.8-1.7-5.4-1.2-7.4c0,0,0.8-1.3,1.5-2.2c0.7-0.9,2.9-5.1,3.6-7c0.6-1.9,1.5-3.2,1.5-3.2s2.3-3.7,2.7-4.8
			c0.3-1.1,0.7-1.8,1.1-2.4c0.5-0.6,0.3-1-0.2-0.4c-0.5,0.5-1.4,1.9-2.6,4.1c-1.2,2.2-4.4,7.6-5.2,9c-0.8,1.4-4.4,6.2-5.7,7.3
			c0,0-0.8,0.4-0.6,0c0.2-0.3,1.8-4.3,2.6-6.2c0.8-1.9,2.7-6.2,3.6-10.1c0.8-3.8,1.4-10.7,1.8-11.2c0,0,0.2-0.5-0.3,0.1
			c-0.5,0.6-2.3,3.3-2.3,4.1c0,0.7,0,1.6,0.1,3.5c0.2,1.8,0.2,3.1-0.2,4c-0.3,0.9-0.4,2.7-4,8.9c0,0-0.3-1.1-0.1-2.1
			c0.2-1,0.8-5.4,0.8-5.8c-0.1-0.4-0.2-0.4-0.3-0.8c-0.1-0.5-0.2-1.8,0-2.5c0.2-0.7,0.5-2-0.4-1l-0.2,0.7c0,0-0.5-0.1-0.4-0.6
			c0.1-0.5,0-2.2,0.1-2.6c0.2-0.4,0.2-1.7-0.5-0.8l-0.2,0.9c0,0-0.4,0-0.4-0.2c0-0.2-0.5-1-0.5-1.6c0-0.5,0.2-1.7,0.1-1.8
			c-0.1-0.2-0.3-0.3-0.5,0c0,0-0.2,0.2-0.3-0.1c-0.1-0.3-0.2-1.1-0.8-3c-0.6-1.9-2-6-3.8-8c-1.8-2.1-1.7-3.1-6-4.9
			c0,0-1.4-0.4-0.3,0.2c1.2,0.5,3.4,1.3,5.2,4.4c1.5,2.6,2.6,4.9,3.1,7.9c0.4,2.9,1,4.2,2.2,7c1.2,2.8,2.3,7,2.3,8.5
			c0,1.4,0.7,5.7-1,9.2c0,0-0.4,0.2-0.4-0.2c0-0.4,0.8-5.7,0.3-7.1c-0.5-1.4-1.6-3.9-2.9-6.8c-1.3-2.9-1-3.8-2.2-5.4
			c0,0-2.6-5.3-2.8-5.7c-0.1-0.5-0.2-1.7-0.7-0.7c0,0,0.2,0.6,0.7,1.8c0.5,1.2,2.3,4.3,2.6,5.4c0.3,1.1,1.8,5.2,2.3,7.8
			c0.5,2.6,1,6.3,1,9.4c0,3.1,0.2,4.2-0.6,6.5c-0.8,2.4-1.6,4.6-1.9,4.7c-0.3,0.1-0.3-0.6-0.3-0.6s0.3-12.5-0.1-13.2
			c0,0-0.3-0.8-0.5,0.2c-0.2,1-0.3,1.3-0.3,2.3c0,1-0.2,6-0.4,7.8c-0.2,1.9-0.7,5-1.1,5.5c-0.4,0.5-1.7,3.1-2.1,3.3
			c-0.4,0.2-1.1,0-0.9-0.5c0.2-0.5,0.7-1,0.8-1.5c0-0.5,0.2-1-0.6-0.6c-0.7,0.4-0.6,0.8-0.9,0.8c-0.3,0-0.3-0.7-0.2-1
			c0.2-0.2,0.7-0.5,0.8-0.8c0.1-0.3,0.5-1.4-0.4-0.6c-1,0.8-0.9,0.9-0.9,0.9s-0.3,0-0.1-0.4c0.2-0.4,0.9-1.7,0.9-1.8
			c0-0.2,0.3-1.5-0.2-0.7c-0.5,0.8-2.6,3.9-2.6,3.9s0,0.5,0.7,0.6c0.7,0.1,0.4,0.2,0.1,0.6c-0.3,0.3-0.5,0.7-0.9,0.4
			c-0.4-0.3-1.2-2.7-2.1-4.4c-0.9-1.7-3.4-5.9-5.1-7.8c-1.6-1.9-3.6-3.8-3.6-3.8l0.1,0.6l-1.1-0.8l3.2,5.2c0,0,0.5,1,1.8,3
			c1.3,2,2.9,5.3,2.9,5.3s-1.6,0.1-2.2-0.4c-0.7-0.5-4.2-4-5.7-5.1c-1.6-1.1-3.4-2.2-7.3-3.3l-4.2-1.7H220c0,0-0.8,0.5,0.5,0.6
			c1.3,0.1,1.6,0.2,2,0.4c0.4,0.2,2.6,0.8,7.3,3.4c4.7,2.6,8.1,4.9,8.3,5.5c0,0-1.4,0.2-1.8,0c-0.5-0.2-1.8-0.9-2.4-1
			c-0.6-0.1-8.3-0.7-8.3-0.7s-7.3-0.8-9.5,0c0,0-0.4,0.8,0.3,0.6c0.7-0.2,1.4-0.4,3.1-0.3c1.7,0.2,3.8,0.5,4.6,0.7
			c0.8,0.2,1.8,0,2.1,0.1c0.2,0,1.1,0.5,1.1,0.7c0,0.2-0.1,0-0.6,0.2c-0.5,0.2-7.5,0.2-8.1,1.6c0,0-0.4,0.4,0.3,0.5
			c0.7,0,1.7-0.5,2.4-0.3c0.7,0.1,5.4,0.3,5.4,0.3s6.8-0.2,8.8-0.1c2,0.1,4.3,0.2,5.8,0.8c1.5,0.6,4.8,1.9,5.8,3.3
			c0,0,0.3,0.2,0,0.3c-0.2,0.1-3.2,0.5-3.5,0.4c-0.3-0.1-0.8,0.3-0.2,0.4c0.6,0.1,2.3,0.2,2.3,0.2l8.6,0.6c0,0,3.4,0.2,4.5,0.8
			c1.1,0.6,6,2.9,6.7,4.8c0.7,1.8,0.8,2.2,0.5,4.6c-0.3,2.4-1.1,2.8-1.8,3.2l-1.2,0.2c0,0-0.4,0.2,0.2,0.4c0.7,0.2,1.2,0.4,1.6,0
			c0,0,0.4,0,0.4,0.1c0,0.2-0.2,1-0.2,1s-0.2,4.4-3.8,8.9c0,0,0.2,1.3-7.1,2.6c-7.3,1.3-10.4,0.9-10.4,0.9s-0.5,0-0.9,0.2
			c-0.4,0.2,0,0.2-2.1,0.3c-2.1,0.1-9.4,0.3-11,0.3c-1.6,0-1.9,0.1-3.8-0.3c-1.9-0.4-12.2-3.1-12.4-3.3c-0.2-0.2-0.2-0.5,0-0.5
			c0.3,0,0.5-0.8-0.1-0.7c-0.6,0-0.5,0.3-0.5,0.3s-6.7-0.5-8.9-1.1c0,0-3.4-0.7-4.9-1.2c-1.5-0.6-3.9-0.8-5.3-2.9
			c-1.3-2.1-0.9-4.6-0.4-6.1c0.5-1.5,3-6.3,3.6-7.9c0.7-1.6,1.7-3.7,1.6-7c0,0,0.4-2.5,1.1-3.9c0.8-1.5,4.8-8.2,5.4-8.8
			c0.6-0.6,2.8-3,7.2-8.2c4.5-5.2,9.2-10,10.3-12.8c1.1-2.8,2.2-6.7,3.7-9.3c1.5-2.6,3.2-5.7,5.7-8.4c2.4-2.8,3.6-4.3,4.2-4.4
			c0.7-0.1,4-0.3,4.2-0.3c0.2,0,2.8-0.3,3.1-0.1c0.3,0.2,1.3-0.1,0.2-0.5l-1-0.1c0,0-3,0-4-0.8c0,0-2.4-0.1-2.8-0.4
			c-1-0.7,0.5-1,0.7-1.2c0.5-0.3,3.1-1.6,3.6-1.9c0.6-0.3,1.2-0.9,1.7-0.9c0.5,0,3.4-0.7,4.6-0.7c1.3,0,5.4,0.1,10.1,0.9
			c4.7,0.8,10.2,1.3,10.7,1.6c0.5,0.3,1.2,0.5,1.7,0.4c0.5-0.1,0.7-0.3,0.3-0.5c-0.5-0.2-0.6-0.1-1.1-0.3c-0.5-0.2-1.1-0.6-1.4-0.9
			c-0.3-0.3-0.7-0.4-1-0.5c0,0-3.6-0.5-3.9-0.8c-0.3-0.3,0-0.6,0.4-0.7c0.3,0,4.8-1.6,5.9-2c1.1-0.3,1.2-0.4,2.4-0.5
			c1.2-0.1,2.8-0.2,3.3-0.1c0.5,0.2,0.7,0.2,0.2,0.6c-0.4,0.3-3.1,3.5-3,7.3c0.1,3.8,0.3,4,1.1,5.2c0.7,1.1,1.5,2.8,1.8,2.1
			c0.3-0.7,0.2-0.8,0.2-0.8L274.4,103.2z"/>
	</g>
	<path class="st8" d="M261.4,181.1c12.7,8.1,27.9,12.8,44.1,12.8c45.4,0,82.1-36.8,82.1-82.1c0-45.4-36.8-82.1-82.1-82.1
		c-45.4,0-82.1,36.8-82.1,82.1c0,2.2,0.1,4.4,0.3,6.6"/>
	<path class="st7" d="M226.4,111.7c0,0-2.5,4-2.8,6.9l3.6,0C227.2,118.6,228.8,112.1,226.4,111.7z"/>
	<path class="st9" d="M346,124.2c0,0-0.4-0.8,0.9-1.2c3.3-0.9,3-1.6,10.4-0.7c5.5,0.7,8.4,2.2,8.6,3c0.2,0.8,0.2,1.7,0,2.3l-0.2,0.3
		c0,0-2.4-0.9-2.2,1c0.2,1.8,1.4,1.3,2.4,1.1l-1,14.6c0,0-0.1,8.7-2.5,12.7c-2.4,4-4,5.2-6.9,6.5c0,0,0.3-0.6,0-0.8
		c-0.3-0.2-0.4-0.6-0.7-0.2c-0.3,0.4-1.5,1.2-2.7,1c0,0,0.3-2.1-0.3-5.2c-0.6-3.1-1.2-5.8-1.2-7.1c-0.1-1.3,0.4-3.3-0.3-4.7
		c-0.7-1.4-0.8-2.3-4.8-5.2l-0.1-3.5c0,0,0.2-2.7-1.4-3.6c0,0,0.8-4.9,1-6.2C345.3,127,346,124.2,346,124.2z"/>
	<path class="st9" d="M292.2,141.8c0,0-1.3,1.8-1.4,3.6c-0.1,1.8,0,3.5,0,3.5l2.3,0.1v0.3c0,0-2.2-0.1-2.3,1.1
		c-0.1,1.3-0.3,2.4,0.3,2.4c0.6,0,3.9,0,3.9,0l-0.1,0.3c0,0-3.5,0.6-3.9,1.2c-0.4,0.6-0.3,1-0.3,1l-0.2,6.5c0,0,0.1,0.6,1.3,1
		c1.2,0.3,1.1,0.4,1.1,0.4l-0.1,0.3c0,0-1.9,0-2,1.3c-0.1,1.3-0.1,1.4,0.2,1.6c0.3,0.2,2.9,0.6,2.9,0.6l0,0.4c0,0-2.5,0.4-2.8,1.6
		c-0.3,1.2-0.4,2.1,0.8,3.6c1.2,1.5,2.1,2.1,3.8,2.3c1.7,0.2,1.9,0,1.9,0l0.1,0.8c0,0,0,0.6-1.7,0.3c-1.7-0.3-3.4-0.5-5.2-3.1
		c-1.8-2.6-1.5-7.5-1.5-7.5l0-9.4l0.4-8C289.9,148,289.6,142,292.2,141.8z"/>
	<path class="st9" d="M298.7,139.5c0,0,4.2-0.7,5.3-0.3l0,0.3c0,0-2.4-0.1-3.7,1.7l-0.3,0L298.7,139.5z"/>
	<path class="st9" d="M299.6,142.8c0,0,0.7,1.4,0.7,4.6c0,3.2-0.2,13-0.3,14.1c-0.1,1.1-0.1,8.3-0.1,8.3s0.1,3.6-0.3,3.8
		c-0.4,0.3-1.8,0.4-2.1,0.3c-0.3,0-0.2-0.3-0.2-0.3s1.3-0.1,1.5-1.3c0.2-1.1,0.3-6.4,0.3-6.4l0.3-9.9l0.3-9.9c0,0,0.1-2-0.4-3.2
		l-0.2-0.8L299.6,142.8z"/>
	<polygon class="st9" points="300.9,151.6 305.6,151.8 305.6,152.9 300.9,153 	"/>
	<path class="st9" d="M312.8,149.5l0.1,0.7c0,0-3.7,0.1-4.4,1.8c-0.7,1.6-0.6,3.6-0.6,3.6l0,5.4c0,0,0.5,2.6,2.6,2.9
		c2.1,0.3,2.8,0.1,2.8,0.1l-0.1,0.8c0,0-4.2,0.5-5-0.6c-0.9-1.2-1.2-2.3-1.3-6c0-3.7-0.1-7.2,1.3-7.6c1.4-0.5,2.7-0.9,4.4-1"/>
	<path class="st9" d="M308.9,149.7c0,0,0.3-1.1-0.8-1.3c0,0-5.9-0.3-7.2-0.2l-0.2-0.7c0,0,5.9-0.3,7.7,0.1c1.7,0.4,2.2,0.5,2.3,1
		C310.9,149.2,311.3,149.5,308.9,149.7z"/>
	<path class="st9" d="M306.5,139.1c0,0,3.6-0.8,6.5,0.4c2.9,1.2,4.2,2.3,4.4,2.9c0.1,0.6,1,2.9,1.2,3.1c0.2,0.2,1,1,1.1,1.5
		c0.1,0.5,0.9,3.4,0.9,5.3c0,1.9,0.4,8.4-1,13.3c0,0-0.8,1.8-1.5,2.7c-0.7,1-1.2,1.9-1.4,2.6c-0.2,0.7-0.4,1.9-0.6,2.5
		c-0.2,0.5-1.3,1.2-1.8,1c-0.4-0.2-0.4-1-0.2-1.2c0.2-0.3,0.4-1.6,0.4-2.1c0-0.5,0.2-5.6,0.2-5.6s1.7-0.6,2-1.7
		c0.3-1.1,0.5-6.6,0.5-6.6l0.1-6c0,0-0.4-2.5-3.1-2.5l-0.4-0.4c0,0-0.4-3.5-0.8-4.9c-0.5-1.4-0.9-3.2-2-3.4c-1.1-0.2-4-0.3-4-0.3
		l-0.5,0L306.5,139.1z"/>
	<polygon class="st9" points="300.4,163 306.3,163.1 306.4,163.8 300.3,163.8 	"/>
	<path class="st9" d="M311.6,152.4c0,0,1.2-0.9,1.6-0.7c0.4,0.2,0.3,0.4,0.3,0.4l-0.1,9.2c0,0-1.6,2-2.2-0.7
		C310.6,157.8,311.3,152.7,311.6,152.4z"/>
	<path class="st9" d="M313.9,149.5c0,0,2.2-0.3,2.3,2.6c0.1,2.9,0,9.8,0,9.8s-0.4,1.9-1.3,2h-0.5l-0.2-1.7c0,0,0.6-0.6,0.7-1.2
		c0.1-0.6,0.2-9.4-0.1-9.7c-0.3-0.3-0.8-0.6-0.8-0.6L313.9,149.5z"/>
	<path class="st9" d="M300.4,166.5c0,0,6.2,0.6,7.2,0.2c1-0.4,1.4-0.8,1.5-1.4l2.2,0c0,0,0.1,0.9-0.6,1.6c-0.7,0.7-1.6,0.7-1.6,0.7
		l-8.8-0.2L300.4,166.5z"/>
	<path class="st9" d="M319.8,166.7c0,0,1.7-2.9,1.7-8.5c0-5.6,0.3-4.3-0.6-10l7.6,0.2c0,0-0.3,1-0.2,2.2c0.2,1.3,0.6,4.8,0.6,4.8
		s-4.8,0.2-5.4,0.6c-0.6,0.4-1,0.3-1.1,1.4c-0.1,1.1-0.4,6.2-0.7,7c-0.4,0.9-0.9,2.3-0.9,2.3l-1.2,0.2L319.8,166.7z"/>
	<path class="st9" d="M299.4,174.9c0,0,0.8-0.6,1-1.1l0.9,1.1C301.2,174.9,300.6,175.6,299.4,174.9z"/>
	<path class="st10" d="M348.5,133.2c1,0,1.7,0.8,1.7,1.7c0,1-0.8,1.7-1.7,1.7c-1,0-1.7-0.8-1.7-1.7
		C346.7,134,347.5,133.2,348.5,133.2z"/>
	<path class="st9" d="M282.6,34.2c0,0-0.9,0.2-0.7-0.7c0.2-0.9,0.5-0.9,1.1-1.4c0.6-0.5,1.9-1,1.4-1.5c0,0-0.5-0.3-0.7,0
		c0,0-0.3-0.2,0.1-0.6c0.4-0.3,2.6-1.9,2.6-1.9s0.3-0.7-0.2-0.6c-0.5,0-0.6,0.2-0.6,0.2s-0.5,0-0.2-0.3c0.3-0.3,1.5-1.8,2-2
		c0.5-0.2,1.3-0.3,1.4-0.8c0.1-0.5-0.3-0.5-0.5-0.4c-0.3,0.1-0.6,0.3-0.6,0.3l-0.2,0c0,0,0.4-1,0.9-1.2c0.5-0.3,2.9-1.8,2.9-1.8
		s0-0.6-0.5-0.5c-0.5,0.1-0.5,0.1-0.5,0.1s2.9-3.7,7.5-5.5c0,0,0.7-0.3,0-0.6c0,0,2.2-2.9,6.2-3.1l0.1,0.2c0,0-4.8,5.6-9.1,13
		c0,0-0.3,0.7,0.3,0.2c1-0.9,2.9-1.6,2.9-1.6s0-0.5-0.3-0.5c-0.5,0.1-0.5-0.1-0.5-0.1s0.2-0.5,0.5-0.6c0.3-0.1,2.6-1,2.6-1.4
		c0-0.4-0.2-0.3-0.2-0.5c0-0.2,0.2-0.5,0.4-0.5c0.2,0,1,0,1-0.5c0-0.5-0.4-0.5-0.4-0.5s0.2-0.8,0.4-0.8c0.2,0,0.9,0.3,1.2,0
		c0.3-0.3,0.6-0.4,0.3-0.6c-0.3-0.2-0.6-0.2-0.6-0.4c0.1-0.2,0.3-0.4,0.5-0.5c0.1-0.1,1.1-0.3,1.3-0.5c0.2-0.2,0.1-0.5,0-0.6
		c-0.1-0.2-0.1-0.5,0.1-0.5c0.2,0,0.7-0.3,1-0.5c0.2-0.2,1.5-0.4,1.5-0.4s0.2-0.3-0.1-0.5c-0.3-0.2-0.6-0.6-0.3-0.8
		c0.3-0.2,2-0.3,2.4-0.6c0.3-0.3,0.5-0.6,0.2-0.7c-0.2-0.1-0.3-0.4-0.3-0.4s2.3-0.6,2.5-0.9c0.1-0.3,0.3-0.4,0.4-0.6
		c0.2-0.1,3.1-1.2,4.3-0.7c1.2,0.5,2.6,2.1,2.7,2.6c0.2,0.5-0.3,0.5-0.3,0.5s-3,1.5-7,6.2c0,0-5.2,5.3-5.5,6.3
		c-0.3,1-0.5,1.8-0.1,1.3c0.4-0.5,0.5-1.2,1-1.6c0.4-0.4,2.6-3.2,3.6-4c1-0.8,5-4.9,7.7-6.1c2.7-1.2,3.6-1.5,4.1-1.3
		c0.4,0.2,1.3,0.4,2.6,1.6c1.3,1.1,3.8,3,5.7,5c1.8,2,4.6,7.2,5.8,9.5c1.2,2.3,3,7.7,3.7,10.2c0.7,2.5,2.4,7.5,2.7,11.1l-8.7-3.6
		c0,0-5-2.2-6.1-2c-1,0.2-0.4,0.4,0.5,0.7c0.9,0.2,5.6,1.7,8.5,3.1c2.4,1.2,5.8,2.5,5.8,2.5l0.2,2.2l-2.2-1l-10.8-4.4
		c0,0-8.3-2.6-9.1-2.9c-0.8-0.3-0.7-0.5-1.1-0.8c-1.2-0.8-5.6-5.8-17.9-9.7l-5-0.4c0,0-0.2-0.3,0.4-0.4c0.6-0.1,2.7-0.3,4.2,0.1
		c1.5,0.4,4.3,0.9,7.6,2.3c2.5,1.1,6.1,2.1,10.9,6.2c0,0,1.1,1,1.6,1.4c0.4,0.3,1.1-0.2,0.5-0.8c-0.6-0.6-3.3-3.4-8.3-5.7
		c-5-2.3-8-3.4-11.3-3.9c-3.3-0.5-5.5-0.5-5.5-0.5l-4.4,0.1c0,0,0-0.9,1.5-1.6c0,0,0.8-0.5,0.3-0.6c-0.5-0.2-0.6-0.6-0.3-0.8
		c0.3-0.2,0.5-0.5,0.5-0.9c0-0.4,0-0.9-0.3-0.5c-0.3,0.4-3.4,4.5-3.4,4.5L282.6,34.2z"/>
	<path class="st9" d="M268.7,41.7c0,0-0.7-0.9,0.5-1.9c1.2-1,2-2,7.8-3.2c5.8-1.2,11.9-2.3,18-2.4c0,0,0.1,0.1-0.1,0.4
		c-0.2,0.3-6.8,0.8-7.7,1.8c0,0-0.1,0.2,0.6,0c2.2-0.6,5.1-0.8,7.4-1c2.3-0.3,3.9-0.6,8.7,1.2c4.8,1.8,7.3,2.9,10.4,5.1
		c3.1,2.2,3.4,2.9,3.4,2.9s-7.4-0.8-10.1-1.1c-2.7-0.2-8.5-0.3-10.7-0.3c-2.2,0-11.6,0.4-14.5,0.7c-2.9,0.3-8,0.5-8,0.5s0,0.1-0.7,0
		C273.2,44.1,270,43.5,268.7,41.7z"/>
	<path d="M357.1,134.6c0,0-0.2-1.3,1.1-1.1c1.3,0.2,3.3,0.7,3.3,0.7s0.8,0,0.7,1.7c-0.1,1.6-0.5,11.3-0.5,11.3s0.1,0.7-0.9,0.6
		c-1-0.1-4.1-0.7-4.1-0.7s-0.8-0.1-0.8-0.8C355.9,145.5,357.1,134.6,357.1,134.6z"/>
	<path d="M355.6,147.4l6,1.3c0,0-0.8,4.6-4.2,3.9C354.1,151.8,355.6,147.4,355.6,147.4z"/>
	<path class="st9" d="M357.7,137.4c0,0,0-0.3,0.4-0.2c0.4,0.1,3.6,0.7,3.6,1.1c0,0.4,0.2,0.8-0.1,0.9c-0.3,0.1-3.7-0.9-3.9-1.1
		C357.5,137.8,357.7,137.4,357.7,137.4z"/>
	<path class="st11" d="M31.2,205.4l22.9-51.1h17.2l5.5,51.1H64l-1-13.5l-14.1-0.3l-5.2,13.8H31.2z M52,184.2l10.4,0.2l-0.9-24.6
		L52,184.2z"/>
	<path d="M126.9,177l0.8-3.3c1.1-4.4-0.2-6.7-2.8-6.7c-4.4-0.1-5.9,2-6.8,5.4l-6.4,25.6c-0.7,2.9,0.2,4.6,3.9,4.6
		c4.8,0,6.3-4.3,7-7.5l1.2-4.7h14.1l-1.6,6.4c-2.2,8.9-9.6,15.1-24,15.1c-13,0-16.5-5.9-13.9-16.5l5.2-21.3
		c2.8-11.3,10.1-16.5,22.9-16.5c12,0,18.1,4.4,15.5,15L141,177H126.9z"/>
	<path class="st11" d="M123.1,172.3l0.8-3.3c1.1-4.4-0.2-6.7-2.8-6.7c-4.4-0.1-5.9,2-6.8,5.4l-6.4,25.6c-0.7,2.9,0.2,4.6,3.9,4.6
		c4.8,0,6.3-4.3,7-7.5l1.2-4.7h14.1l-1.6,6.4c-2.2,8.9-9.6,15.1-24,15.1c-13,0-16.5-5.9-13.9-16.5l5.2-21.3
		c2.8-11.3,10.1-16.5,22.9-16.5c12,0,18.1,4.4,15.5,15l-1.1,4.4H123.1z"/>
	<path d="M246.3,158.8h34.9l-2.9,11h-21.9l-2.2,8.1h20.3l-2.8,10.5h-20.3l-2.7,10.2h22.5l-3.1,11.7h-35.5L246.3,158.8z"/>
	<path class="st11" d="M242.9,154H278l-2.9,11h-22l-2.2,8.2h20.3l-2.8,10.5H248l-2.7,10.2h22.6l-3.1,11.7h-35.7L242.9,154z"/>
	<path d="M165.7,155.7l22.2,0.2l0.8,29.2l14.7-29l22.1,0.2l-12.9,54.6l-14.5-0.1l9.8-41.6l-19.6,41.5l-11.3-0.1l0.2-41.7l-9.8,41.6
		l-14.5-0.1L165.7,155.7z"/>
	<path class="st12" d="M161.9,154.4l22.2-0.1l0.7,27.4l14.8-27.3l22.2-0.1l-13.1,52.7l-14.5-0.1l9.8-40.9l-19.6,40.8l-11.3-0.1
		l0.1-41l-9.8,40.9l-14.5-0.1L161.9,154.4z"/>
	<path d="M539.5,191.9l12.5,0.3c-0.1,2.5,0.2,4,0.8,5.4c1,2.1,2.8,3.2,5.4,3.2c1.9,0,3.5-0.5,4.7-1.6c1.2-1.1,1.9-2.3,2.2-3.8
		c0.2-1.4-0.1-2.6-0.9-3.7c-0.8-1.1-2.9-2.1-6.3-3.1c-5.6-1.6-9.4-3.8-11.5-6.5c-2.1-2.7-2.8-6.1-2.2-10.2c0.4-2.7,1.5-5.3,3.1-7.7
		c1.7-2.4,3.9-4.3,6.7-5.6c2.8-1.4,6.4-2,10.9-2c5.5,0,9.5,1.3,12,3.8c2.5,2.5,3.6,6.5,3.3,12l-12.7,0.8c0-2.4-0.4-4.1-1.3-5.2
		c-0.9-1.1-2.3-1.6-4.2-1.6c-1.6,0-2.8,0.4-3.7,1.2c-0.9,0.8-1.5,1.8-1.6,2.9c-0.1,0.8,0.1,1.6,0.6,2.3c0.5,0.7,1.9,1.4,4.2,2
		c5.6,1.6,9.5,3.1,11.8,4.7c2.3,1.6,3.8,3.5,4.6,5.9c0.8,2.3,0.9,4.9,0.5,7.8c-0.5,3.4-1.8,6.5-3.8,9.3c-2,2.8-4.5,5-7.5,6.4
		c-3,1.4-6.6,2.2-10.8,2.1c-7.3-0.1-12.2-1.8-14.4-5.3C539.6,202.4,539,197.3,539.5,191.9z"/>
	<path class="st11" d="M535.4,187.8l12.5,0.3c-0.1,2.5,0.2,4,0.8,5.3c1,2.1,2.8,3.2,5.4,3.2c1.9,0,3.5-0.5,4.7-1.6
		c1.2-1.1,1.9-2.3,2.1-3.7c0.2-1.3-0.1-2.5-0.9-3.6c-0.8-1.1-2.9-2.1-6.3-3.1c-5.6-1.6-9.4-3.7-11.5-6.4c-2.1-2.6-2.8-6-2.2-10
		c0.4-2.7,1.5-5.2,3.2-7.5c1.7-2.4,3.9-4.2,6.7-5.6c2.8-1.3,6.4-2,10.9-2c5.5,0,9.5,1.3,12,3.8c2.5,2.5,3.6,6.4,3.3,11.8l-12.7,0.8
		c0-2.3-0.4-4-1.3-5.1c-0.9-1.1-2.3-1.6-4.2-1.6c-1.6,0-2.8,0.4-3.7,1.2c-0.9,0.8-1.5,1.7-1.6,2.9c-0.1,0.8,0.1,1.6,0.6,2.2
		c0.5,0.7,1.9,1.3,4.2,1.9c5.6,1.6,9.5,3.1,11.8,4.7c2.3,1.6,3.8,3.5,4.6,5.8c0.8,2.3,0.9,4.9,0.5,7.7c-0.5,3.3-1.8,6.4-3.8,9.2
		c-2,2.8-4.5,4.9-7.5,6.3c-3,1.4-6.6,2.1-10.8,2.1c-7.3-0.1-12.2-1.8-14.4-5.2C535.5,198.1,534.9,193.1,535.4,187.8z"/>
	<path d="M331.1,158.8h36.3l-2.5,10.3h-11.3l-10.1,41.2h-14l10.1-41.2h-11L331.1,158.8z"/>
	<path class="st13" d="M327.4,154.2h36.3l-2.5,10.3h-11.3l-10.1,41.2h-14l10.1-41.2h-11L327.4,154.2z"/>
	<path d="M490.8,210.4l12.7-51.5h14L507.3,200h17.1l-2.5,10.3H490.8z"/>
	<path class="st13" d="M487.1,205.7l12.7-51.5h14l-10.1,41.2h17.1l-2.5,10.3H487.1z"/>
	<path d="M415.9,193.9c-2.9,11.6-9,17.7-23.2,17.7c-14.2,0-17.6-6-14.7-17.7l5.2-21c2.4-9.9,10.6-15.4,22.9-15.4
		c12.2,0,17.5,5.5,15.1,15.4L415.9,193.9z M406.9,173.8c0.8-3.2,1.4-6.9-3.2-6.9c-4.5,0-5.9,3.8-6.7,6.9l-5.2,21.2
		c-0.7,3-1.3,7.3,3.3,7.3c4.5,0,5.9-4.4,6.7-7.3L406.9,173.8z M474.5,193.9c-2.9,11.6-9,17.7-23.2,17.7c-14.2,0-17.6-6-14.7-17.7
		l5.2-21c2.4-9.9,10.6-15.4,22.9-15.4c12.2,0,17.5,5.5,15.1,15.4L474.5,193.9z M465.4,173.8c0.8-3.2,1.4-6.9-3.2-6.9
		c-4.5,0-5.9,3.8-6.7,6.9l-5.2,21.2c-0.7,3-1.2,7.3,3.3,7.3c4.5,0,5.9-4.4,6.7-7.3L465.4,173.8z"/>
	<path class="st13" d="M412.2,189.3c-2.9,11.6-9,17.7-23.2,17.7c-14.2,0-17.6-6-14.7-17.7l5.2-21c2.4-9.9,10.6-15.4,22.9-15.4
		c12.3,0,17.5,5.5,15.1,15.4L412.2,189.3z M403.2,169.2c0.8-3.2,1.4-6.9-3.2-6.9c-4.5,0-5.9,3.8-6.7,6.9l-5.2,21.2
		c-0.7,3-1.3,7.4,3.3,7.4c4.5,0,5.9-4.4,6.7-7.4L403.2,169.2z M470.7,189.3c-2.9,11.6-9,17.7-23.2,17.7c-14.2,0-17.6-6-14.7-17.7
		l5.2-21c2.4-9.9,10.6-15.4,22.9-15.4c12.3,0,17.5,5.5,15.1,15.4L470.7,189.3z M461.7,169.2c0.8-3.2,1.4-6.9-3.2-6.9
		c-4.5,0-5.9,3.8-6.7,6.9l-5.2,21.2c-0.7,3-1.3,7.4,3.3,7.4c4.5,0,5.9-4.4,6.7-7.4L461.7,169.2z"/>
	<g>
		<path d="M588.8,163.8c3,0,5.4,2.4,5.4,5.4c0,3-2.4,5.4-5.4,5.4c-3,0-5.4-2.4-5.4-5.4C583.4,166.2,585.8,163.8,588.8,163.8
			L588.8,163.8z M588.8,164.8c-2.3,0-4.1,1.9-4.1,4.3c0,2.4,1.8,4.3,4.1,4.3c2.3,0,4.1-1.9,4.1-4.3
			C592.9,166.8,591.1,164.8,588.8,164.8L588.8,164.8z M587.9,172.3h-1.3v-6c0.5-0.1,1-0.2,1.9-0.2c1,0,1.7,0.2,2.1,0.5
			c0.3,0.3,0.5,0.7,0.5,1.3c0,0.7-0.5,1.2-1.2,1.4v0c0.5,0.1,0.9,0.6,1,1.5c0.1,0.9,0.2,1.3,0.3,1.5h-1.3c-0.1-0.2-0.2-0.7-0.4-1.6
			c-0.1-0.6-0.5-0.9-1.1-0.9h-0.6V172.3z M587.9,168.9h0.6c0.7,0,1.3-0.2,1.3-0.9c0-0.5-0.4-0.9-1.2-0.9c-0.3,0-0.5,0-0.7,0V168.9z"
			/>
	</g>
</g>
</svg>
